<svg xmlns="http://www.w3.org/2000/svg" width="2560" height="1600"><path d="M1401,843L1474,777L1307,780Z" fill="#9bc5e7" stroke="#9bc5e7" stroke-width="1.51"/><path d="M1406,478L1204,711L1307,780Z" fill="#9ec4ee" stroke="#9ec4ee" stroke-width="1.51"/><path d="M1162,889L1409,994L1401,843Z" fill="#98c2e3" stroke="#98c2e3" stroke-width="1.51"/><path d="M1401,843L1609,837L1474,777Z" fill="#97c1e2" stroke="#97c1e2" stroke-width="1.51"/><path d="M1401,843L1409,994L1609,837Z" fill="#94bdde" stroke="#94bdde" stroke-width="1.51"/><path d="M1162,889L1401,843L1307,780Z" fill="#9cc7e8" stroke="#9cc7e8" stroke-width="1.51"/><path d="M1204,711L1162,889L1307,780Z" fill="#9fc9ec" stroke="#9fc9ec" stroke-width="1.51"/><path d="M1474,777L1406,478L1307,780Z" fill="#9cc2ea" stroke="#9cc2ea" stroke-width="1.51"/><path d="M1609,837L1659,704L1474,777Z" fill="#96bde0" stroke="#96bde0" stroke-width="1.51"/><path d="M1547,461L1406,478L1474,777Z" fill="#99bbe9" stroke="#99bbe9" stroke-width="1.51"/><path d="M1609,837L1657,873L1659,704Z" fill="#94bcdd" stroke="#94bcdd" stroke-width="1.51"/><path d="M1409,994L1657,873L1609,837Z" fill="#91b9db" stroke="#91b9db" stroke-width="1.51"/><path d="M1406,478L1138,587L1204,711Z" fill="#9fc3f1" stroke="#9fc3f1" stroke-width="1.51"/><path d="M1204,711L1045,766L1162,889Z" fill="#9fc7ee" stroke="#9fc7ee" stroke-width="1.51"/><path d="M1659,704L1547,461L1474,777Z" fill="#97bae5" stroke="#97bae5" stroke-width="1.51"/><path d="M1071,598L1045,766L1204,711Z" fill="#9fc2f0" stroke="#9fc2f0" stroke-width="1.51"/><path d="M1138,587L1071,598L1204,711Z" fill="#9fc1f2" stroke="#9fc1f2" stroke-width="1.51"/><path d="M935,428L1071,598L1138,587Z" fill="#9fbcf5" stroke="#9fbcf5" stroke-width="1.51"/><path d="M1406,478L1256,289L1138,587Z" fill="#9fbef4" stroke="#9fbef4" stroke-width="1.51"/><path d="M1547,461L1474,382L1406,478Z" fill="#98b6ed" stroke="#98b6ed" stroke-width="1.51"/><path d="M1409,994L1524,1126L1657,873Z" fill="#8eb4d6" stroke="#8eb4d6" stroke-width="1.51"/><path d="M1292,1186L1524,1126L1409,994Z" fill="#8cb3d5" stroke="#8cb3d5" stroke-width="1.51"/><path d="M1045,766L1012,875L1162,889Z" fill="#9dc3ec" stroke="#9dc3ec" stroke-width="1.51"/><path d="M1162,889L1168,1113L1409,994Z" fill="#95bde0" stroke="#95bde0" stroke-width="1.51"/><path d="M897,866L1012,875L1045,766Z" fill="#9ec2ee" stroke="#9ec2ee" stroke-width="1.51"/><path d="M1474,382L1417,359L1406,478Z" fill="#9ab6f0" stroke="#9ab6f0" stroke-width="1.51"/><path d="M964,1041L1168,1113L1162,889Z" fill="#94b9e1" stroke="#94b9e1" stroke-width="1.51"/><path d="M1168,1113L1292,1186L1409,994Z" fill="#90b7d9" stroke="#90b7d9" stroke-width="1.51"/><path d="M1789,478L1660,353L1547,461Z" fill="#93afe6" stroke="#93afe6" stroke-width="1.51"/><path d="M1547,461L1660,353L1474,382Z" fill="#96b2eb" stroke="#96b2eb" stroke-width="1.51"/><path d="M1657,873L1867,715L1659,704Z" fill="#91b8dc" stroke="#91b8dc" stroke-width="1.51"/><path d="M1896,834L1867,715L1657,873Z" fill="#8fb5d7" stroke="#8fb5d7" stroke-width="1.51"/><path d="M1789,478L1547,461L1659,704Z" fill="#93b3e3" stroke="#93b3e3" stroke-width="1.51"/><path d="M1474,382L1488,190L1417,359Z" fill="#90aeed" stroke="#90aeed" stroke-width="1.51"/><path d="M1878,559L1789,478L1659,704Z" fill="#90b0de" stroke="#90b0de" stroke-width="1.51"/><path d="M1264,238L1256,289L1417,359Z" fill="#93b3f3" stroke="#93b3f3" stroke-width="1.51"/><path d="M1417,359L1256,289L1406,478Z" fill="#9ab7f2" stroke="#9ab7f2" stroke-width="1.51"/><path d="M1524,1126L1710,1142L1657,873Z" fill="#88add0" stroke="#88add0" stroke-width="1.51"/><path d="M1693,1182L1710,1142L1524,1126Z" fill="#83a7ca" stroke="#83a7ca" stroke-width="1.51"/><path d="M1012,875L964,1041L1162,889Z" fill="#99bde6" stroke="#99bde6" stroke-width="1.51"/><path d="M808,726L897,866L1045,766Z" fill="#9fc2f1" stroke="#9fc2f1" stroke-width="1.51"/><path d="M808,726L1045,766L820,586Z" fill="#9fbef4" stroke="#9fbef4" stroke-width="1.51"/><path d="M1710,1142L1896,834L1657,873Z" fill="#8aafd1" stroke="#8aafd1" stroke-width="1.51"/><path d="M897,866L964,1041L1012,875Z" fill="#99bbe8" stroke="#99bbe8" stroke-width="1.51"/><path d="M1168,1113L1255,1326L1292,1186Z" fill="#8bb0d4" stroke="#8bb0d4" stroke-width="1.51"/><path d="M1710,1142L1927,1113L1896,834Z" fill="#83a7c9" stroke="#83a7c9" stroke-width="1.51"/><path d="M1620,1247L1693,1182L1524,1126Z" fill="#82a6c9" stroke="#82a6c9" stroke-width="1.51"/><path d="M1789,478L1789,229L1660,353Z" fill="#8ca7e3" stroke="#8ca7e3" stroke-width="1.51"/><path d="M1867,715L1878,559L1659,704Z" fill="#8fb1db" stroke="#8fb1db" stroke-width="1.51"/><path d="M2072,689L1878,559L1867,715Z" fill="#8babd7" stroke="#8babd7" stroke-width="1.51"/><path d="M1256,289L935,428L1138,587Z" fill="#9ebaf7" stroke="#9ebaf7" stroke-width="1.51"/><path d="M1408,178L1264,238L1417,359Z" fill="#8eaef0" stroke="#8eaef0" stroke-width="1.51"/><path d="M1591,1383L1620,1247L1395,1439Z" fill="#7694c5" stroke="#7694c5" stroke-width="1.51"/><path d="M1007,106L935,428L1256,289Z" fill="#91adf7" stroke="#91adf7" stroke-width="1.51"/><path d="M1660,353L1488,190L1474,382Z" fill="#8dabea" stroke="#8dabea" stroke-width="1.51"/><path d="M1789,229L1488,190L1660,353Z" fill="#85a3e6" stroke="#85a3e6" stroke-width="1.51"/><path d="M1488,190L1408,178L1417,359Z" fill="#8aaaed" stroke="#8aaaed" stroke-width="1.51"/><path d="M820,586L1045,766L1071,598Z" fill="#9fbff4" stroke="#9fbff4" stroke-width="1.51"/><path d="M792,1129L976,1297L964,1041Z" fill="#8eacdc" stroke="#8eacdc" stroke-width="1.51"/><path d="M1395,1439L1620,1247L1524,1126Z" fill="#7fa0c9" stroke="#7fa0c9" stroke-width="1.51"/><path d="M976,1297L1255,1326L1168,1113Z" fill="#88a9d5" stroke="#88a9d5" stroke-width="1.51"/><path d="M935,428L820,586L1071,598Z" fill="#9fbaf7" stroke="#9fbaf7" stroke-width="1.51"/><path d="M1728,1498L1846,1186L1693,1182Z" fill="#7694c1" stroke="#7694c1" stroke-width="1.51"/><path d="M1693,1182L1846,1186L1710,1142Z" fill="#7fa2c4" stroke="#7fa2c4" stroke-width="1.51"/><path d="M1846,1186L1927,1113L1710,1142Z" fill="#7ea0c3" stroke="#7ea0c3" stroke-width="1.51"/><path d="M1896,834L2072,689L1867,715Z" fill="#8aaed5" stroke="#8aaed5" stroke-width="1.51"/><path d="M935,428L841,400L820,586Z" fill="#9eb6fa" stroke="#9eb6fa" stroke-width="1.51"/><path d="M1007,106L841,400L935,428Z" fill="#95adfa" stroke="#95adfa" stroke-width="1.51"/><path d="M1007,106L1256,289L1264,238Z" fill="#8babf4" stroke="#8babf4" stroke-width="1.51"/><path d="M1395,1439L1524,1126L1292,1186Z" fill="#84a7ce" stroke="#84a7ce" stroke-width="1.51"/><path d="M1620,1247L1728,1498L1693,1182Z" fill="#7695c2" stroke="#7695c2" stroke-width="1.51"/><path d="M1957,282L1789,229L1789,478Z" fill="#86a1df" stroke="#86a1df" stroke-width="1.51"/><path d="M1488,190L1496,42L1408,178Z" fill="#7da1eb" stroke="#7da1eb" stroke-width="1.51"/><path d="M964,1041L976,1297L1168,1113Z" fill="#8eafdb" stroke="#8eafdb" stroke-width="1.51"/><path d="M1255,1326L1395,1439L1292,1186Z" fill="#80a1cf" stroke="#80a1cf" stroke-width="1.51"/><path d="M792,1129L964,1041L897,866Z" fill="#95b5e4" stroke="#95b5e4" stroke-width="1.51"/><path d="M1158,1505L1395,1439L1255,1326Z" fill="#7794cd" stroke="#7794cd" stroke-width="1.51"/><path d="M2106,875L2072,689L1896,834Z" fill="#86a9d2" stroke="#86a9d2" stroke-width="1.51"/><path d="M1878,559L1957,282L1789,478Z" fill="#8da7de" stroke="#8da7de" stroke-width="1.51"/><path d="M671,861L792,1129L897,866Z" fill="#97b6e9" stroke="#97b6e9" stroke-width="1.51"/><path d="M1064,16L1007,106L1264,238Z" fill="#81a2f4" stroke="#81a2f4" stroke-width="1.51"/><path d="M1688,-1L1496,42L1488,190Z" fill="#7499e6" stroke="#7499e6" stroke-width="1.51"/><path d="M1927,1113L2106,875L1896,834Z" fill="#82a5cb" stroke="#82a5cb" stroke-width="1.51"/><path d="M808,726L671,861L897,866Z" fill="#9ebff2" stroke="#9ebff2" stroke-width="1.51"/><path d="M628,662L671,861L808,726Z" fill="#9ebcf6" stroke="#9ebcf6" stroke-width="1.51"/><path d="M628,662L808,726L820,586Z" fill="#9fbaf7" stroke="#9fbaf7" stroke-width="1.51"/><path d="M2144,359L1957,282L1878,559Z" fill="#879edc" stroke="#879edc" stroke-width="1.51"/><path d="M1789,229L1688,-1L1488,190Z" fill="#789ae4" stroke="#789ae4" stroke-width="1.51"/><path d="M841,400L686,516L820,586Z" fill="#9eb5fb" stroke="#9eb5fb" stroke-width="1.51"/><path d="M792,1129L788,1205L976,1297Z" fill="#8aa7da" stroke="#8aa7da" stroke-width="1.51"/><path d="M622,1212L788,1205L792,1129Z" fill="#8da7dd" stroke="#8da7dd" stroke-width="1.51"/><path d="M1189,-26L1264,238L1408,178Z" fill="#82a6f1" stroke="#82a6f1" stroke-width="1.51"/><path d="M841,400L665,320L686,516Z" fill="#9eb1fd" stroke="#9eb1fd" stroke-width="1.51"/><path d="M1927,1113L2053,1132L2106,875Z" fill="#7b9bc4" stroke="#7b9bc4" stroke-width="1.51"/><path d="M2095,1306L2053,1132L1927,1113Z" fill="#7492bc" stroke="#7492bc" stroke-width="1.51"/><path d="M2095,1306L1927,1113L1846,1186Z" fill="#7797bd" stroke="#7797bd" stroke-width="1.51"/><path d="M686,516L628,662L820,586Z" fill="#9fb6fa" stroke="#9fb6fa" stroke-width="1.51"/><path d="M976,1297L1158,1505L1255,1326Z" fill="#7b97d1" stroke="#7b97d1" stroke-width="1.51"/><path d="M983,1458L1158,1505L976,1297Z" fill="#7790d1" stroke="#7790d1" stroke-width="1.51"/><path d="M1496,42L1424,-30L1408,178Z" fill="#769ceb" stroke="#769ceb" stroke-width="1.51"/><path d="M1535,-108L1424,-30L1496,42Z" fill="#6d95e8" stroke="#6d95e8" stroke-width="1.51"/><path d="M2072,689L2155,538L1878,559Z" fill="#85a2d7" stroke="#85a2d7" stroke-width="1.51"/><path d="M2324,703L2155,538L2072,689Z" fill="#7c97d3" stroke="#7c97d3" stroke-width="1.51"/><path d="M1957,282L1960,191L1789,229Z" fill="#7a98dc" stroke="#7a98dc" stroke-width="1.51"/><path d="M2144,359L1960,191L1957,282Z" fill="#7993da" stroke="#7993da" stroke-width="1.51"/><path d="M1424,-30L1189,-26L1408,178Z" fill="#769eee" stroke="#769eee" stroke-width="1.51"/><path d="M797,1499L983,1458L976,1297Z" fill="#778dd2" stroke="#778dd2" stroke-width="1.51"/><path d="M765,148L665,320L841,400Z" fill="#92a8fc" stroke="#92a8fc" stroke-width="1.51"/><path d="M1189,-26L1064,16L1264,238Z" fill="#7ca0f2" stroke="#7ca0f2" stroke-width="1.51"/><path d="M1158,1505L1331,1569L1395,1439Z" fill="#6f8aca" stroke="#6f8aca" stroke-width="1.51"/><path d="M1478,1653L1728,1498L1591,1383Z" fill="#657ebf" stroke="#657ebf" stroke-width="1.51"/><path d="M1591,1383L1728,1498L1620,1247Z" fill="#718dc1" stroke="#718dc1" stroke-width="1.51"/><path d="M1124,1556L1331,1569L1158,1505Z" fill="#6b84ca" stroke="#6b84ca" stroke-width="1.51"/><path d="M1478,1653L1591,1383L1395,1439Z" fill="#6a84c3" stroke="#6a84c3" stroke-width="1.51"/><path d="M1846,59L1688,-1L1789,229Z" fill="#7092df" stroke="#7092df" stroke-width="1.51"/><path d="M1960,191L1846,59L1789,229Z" fill="#7494dc" stroke="#7494dc" stroke-width="1.51"/><path d="M983,1458L1124,1556L1158,1505Z" fill="#6e86cd" stroke="#6e86cd" stroke-width="1.51"/><path d="M686,516L410,489L628,662Z" fill="#99b0fb" stroke="#99b0fb" stroke-width="1.51"/><path d="M765,148L841,400L1007,106Z" fill="#8aa5f9" stroke="#8aa5f9" stroke-width="1.51"/><path d="M1960,191L2065,100L1846,59Z" fill="#6b8bd9" stroke="#6b8bd9" stroke-width="1.51"/><path d="M2155,538L2144,359L1878,559Z" fill="#839cd9" stroke="#839cd9" stroke-width="1.51"/><path d="M2106,875L2324,703L2072,689Z" fill="#7d9cd0" stroke="#7d9cd0" stroke-width="1.51"/><path d="M2155,538L2223,374L2144,359Z" fill="#7b90d8" stroke="#7b90d8" stroke-width="1.51"/><path d="M2053,1132L2231,941L2106,875Z" fill="#7796c5" stroke="#7796c5" stroke-width="1.51"/><path d="M2196,1124L2231,941L2053,1132Z" fill="#728fc0" stroke="#728fc0" stroke-width="1.51"/><path d="M797,1499L1006,1553L983,1458Z" fill="#6e83d0" stroke="#6e83d0" stroke-width="1.51"/><path d="M671,861L593,1091L792,1129Z" fill="#93afe7" stroke="#93afe7" stroke-width="1.51"/><path d="M514,873L593,1091L671,861Z" fill="#95b1ed" stroke="#95b1ed" stroke-width="1.51"/><path d="M628,662L520,784L671,861Z" fill="#9dbaf6" stroke="#9dbaf6" stroke-width="1.51"/><path d="M410,489L520,784L628,662Z" fill="#97b0f8" stroke="#97b0f8" stroke-width="1.51"/><path d="M866,35L765,148L1007,106Z" fill="#7c9cf7" stroke="#7c9cf7" stroke-width="1.51"/><path d="M1728,1498L1983,1403L1846,1186Z" fill="#6c88bb" stroke="#6c88bb" stroke-width="1.51"/><path d="M1424,-30L1220,-129L1189,-26Z" fill="#739df0" stroke="#739df0" stroke-width="1.51"/><path d="M1688,-1L1535,-108L1496,42Z" fill="#6a92e5" stroke="#6a92e5" stroke-width="1.51"/><path d="M1422,-243L1535,-108L1739,-217Z" fill="#6a92e5" stroke="#6a92e5" stroke-width="1.51"/><path d="M983,1458L1006,1553L1124,1556Z" fill="#6c83cd" stroke="#6c83cd" stroke-width="1.51"/><path d="M1473,1737L1478,1653L1331,1569Z" fill="#6079c2" stroke="#6079c2" stroke-width="1.51"/><path d="M797,1499L976,1297L788,1205Z" fill="#7f97d6" stroke="#7f97d6" stroke-width="1.51"/><path d="M520,784L514,873L671,861Z" fill="#98b6f2" stroke="#98b6f2" stroke-width="1.51"/><path d="M2095,1306L2196,1124L2053,1132Z" fill="#6e8bba" stroke="#6e8bba" stroke-width="1.51"/><path d="M593,1091L622,1212L792,1129Z" fill="#8ea8e0" stroke="#8ea8e0" stroke-width="1.51"/><path d="M432,1187L622,1212L593,1091Z" fill="#87a2df" stroke="#87a2df" stroke-width="1.51"/><path d="M1064,16L866,35L1007,106Z" fill="#789af5" stroke="#789af5" stroke-width="1.51"/><path d="M720,-81L866,35L757,-180Z" fill="#7092f7" stroke="#7092f7" stroke-width="1.51"/><path d="M1220,-129L1064,16L1189,-26Z" fill="#739af2" stroke="#739af2" stroke-width="1.51"/><path d="M1983,1403L2095,1306L1846,1186Z" fill="#6d89b9" stroke="#6d89b9" stroke-width="1.51"/><path d="M1473,1737L1331,1569L1356,1828Z" fill="#627ac3" stroke="#627ac3" stroke-width="1.51"/><path d="M1331,1569L1478,1653L1395,1439Z" fill="#6680c4" stroke="#6680c4" stroke-width="1.51"/><path d="M1965,1560L2026,1457L1983,1403Z" fill="#5b72b3" stroke="#5b72b3" stroke-width="1.51"/><path d="M1422,-243L1220,-129L1424,-30Z" fill="#719aed" stroke="#719aed" stroke-width="1.51"/><path d="M2144,359L2065,100L1960,191Z" fill="#6f8bd9" stroke="#6f8bd9" stroke-width="1.51"/><path d="M2292,486L2223,374L2155,538Z" fill="#798ed6" stroke="#798ed6" stroke-width="1.51"/><path d="M2231,941L2324,703L2106,875Z" fill="#7897cb" stroke="#7897cb" stroke-width="1.51"/><path d="M2379,962L2324,703L2231,941Z" fill="#718ec9" stroke="#718ec9" stroke-width="1.51"/><path d="M765,148L648,178L665,320Z" fill="#89a0fc" stroke="#89a0fc" stroke-width="1.51"/><path d="M665,320L410,489L686,516Z" fill="#9aadfe" stroke="#9aadfe" stroke-width="1.51"/><path d="M720,-81L648,178L765,148Z" fill="#7a97fa" stroke="#7a97fa" stroke-width="1.51"/><path d="M2324,703L2292,486L2155,538Z" fill="#778ed3" stroke="#778ed3" stroke-width="1.51"/><path d="M2312,180L2065,100L2144,359Z" fill="#6681d6" stroke="#6681d6" stroke-width="1.51"/><path d="M1739,-217L1535,-108L1688,-1Z" fill="#688fe2" stroke="#688fe2" stroke-width="1.51"/><path d="M2077,-77L2065,100L2240,65Z" fill="#5277d4" stroke="#5277d4" stroke-width="1.51"/><path d="M1983,1403L2026,1457L2095,1306Z" fill="#6079b5" stroke="#6079b5" stroke-width="1.51"/><path d="M1478,1653L1710,1647L1728,1498Z" fill="#5a72bb" stroke="#5a72bb" stroke-width="1.51"/><path d="M1965,1560L1983,1403L1728,1498Z" fill="#5f77b5" stroke="#5f77b5" stroke-width="1.51"/><path d="M2390,1138L2379,962L2196,1124Z" fill="#6782bc" stroke="#6782bc" stroke-width="1.51"/><path d="M695,1433L797,1499L788,1205Z" fill="#7a8fd6" stroke="#7a8fd6" stroke-width="1.51"/><path d="M622,1212L695,1433L788,1205Z" fill="#839bda" stroke="#839bda" stroke-width="1.51"/><path d="M1478,1653L1473,1737L1710,1647Z" fill="#5d74bd" stroke="#5d74bd" stroke-width="1.51"/><path d="M1229,1765L1331,1569L1124,1556Z" fill="#647dc8" stroke="#647dc8" stroke-width="1.51"/><path d="M1229,1765L1124,1556L993,1738Z" fill="#647bca" stroke="#647bca" stroke-width="1.51"/><path d="M1710,1647L1965,1560L1728,1498Z" fill="#5970b5" stroke="#5970b5" stroke-width="1.51"/><path d="M1767,1706L1965,1560L1710,1647Z" fill="#546cb4" stroke="#546cb4" stroke-width="1.51"/><path d="M1535,-108L1422,-243L1424,-30Z" fill="#6e96e9" stroke="#6e96e9" stroke-width="1.51"/><path d="M979,-239L866,35L1064,16Z" fill="#7196f4" stroke="#7196f4" stroke-width="1.51"/><path d="M1862,-151L1688,-1L1846,59Z" fill="#638add" stroke="#638add" stroke-width="1.51"/><path d="M2196,1124L2379,962L2231,941Z" fill="#6e89c1" stroke="#6e89c1" stroke-width="1.51"/><path d="M2425,201L2223,374L2507,344Z" fill="#6277d3" stroke="#6277d3" stroke-width="1.51"/><path d="M2332,1190L2196,1124L2095,1306Z" fill="#6882b8" stroke="#6882b8" stroke-width="1.51"/><path d="M2332,1190L2095,1306L2300,1366Z" fill="#5e75b4" stroke="#5e75b4" stroke-width="1.51"/><path d="M797,1499L785,1566L1006,1553Z" fill="#697dcf" stroke="#697dcf" stroke-width="1.51"/><path d="M695,1433L785,1566L797,1499Z" fill="#6d80d2" stroke="#6d80d2" stroke-width="1.51"/><path d="M459,302L410,489L665,320Z" fill="#92a5fe" stroke="#92a5fe" stroke-width="1.51"/><path d="M347,938L395,1116L514,873Z" fill="#88a7e9" stroke="#88a7e9" stroke-width="1.51"/><path d="M993,1738L1124,1556L1006,1553Z" fill="#6379cb" stroke="#6379cb" stroke-width="1.51"/><path d="M1356,1828L1767,1706L1473,1737Z" fill="#5d75be" stroke="#5d75be" stroke-width="1.51"/><path d="M1473,1737L1767,1706L1710,1647Z" fill="#5a71ba" stroke="#5a71ba" stroke-width="1.51"/><path d="M2077,-77L1862,-151L1846,59Z" fill="#5e85d8" stroke="#5e85d8" stroke-width="1.51"/><path d="M648,178L540,182L665,320Z" fill="#899ffd" stroke="#899ffd" stroke-width="1.51"/><path d="M720,-81L540,182L648,178Z" fill="#7a96fb" stroke="#7a96fb" stroke-width="1.51"/><path d="M720,-81L765,148L866,35Z" fill="#7495f8" stroke="#7495f8" stroke-width="1.51"/><path d="M1862,-151L1739,-217L1688,-1Z" fill="#648bde" stroke="#648bde" stroke-width="1.51"/><path d="M2372,1174L2332,1190L2300,1366Z" fill="#5c74b4" stroke="#5c74b4" stroke-width="1.51"/><path d="M540,182L459,302L665,320Z" fill="#899ffd" stroke="#899ffd" stroke-width="1.51"/><path d="M695,1433L628,1555L785,1566Z" fill="#6a7dd2" stroke="#6a7dd2" stroke-width="1.51"/><path d="M622,1212L514,1366L695,1433Z" fill="#7c91d9" stroke="#7c91d9" stroke-width="1.51"/><path d="M395,1116L432,1187L593,1091Z" fill="#84a0e0" stroke="#84a0e0" stroke-width="1.51"/><path d="M395,1116L593,1091L514,873Z" fill="#8ba8e7" stroke="#8ba8e7" stroke-width="1.51"/><path d="M347,938L514,873L520,784Z" fill="#90aff0" stroke="#90aff0" stroke-width="1.51"/><path d="M785,1566L993,1738L1006,1553Z" fill="#6377cc" stroke="#6377cc" stroke-width="1.51"/><path d="M232,779L347,938L520,784Z" fill="#8cadf1" stroke="#8cadf1" stroke-width="1.51"/><path d="M2332,1190L2390,1138L2196,1124Z" fill="#657eb9" stroke="#657eb9" stroke-width="1.51"/><path d="M2300,1366L2095,1306L2026,1457Z" fill="#5b72b4" stroke="#5b72b4" stroke-width="1.51"/><path d="M323,1368L514,1366L432,1187Z" fill="#728cd9" stroke="#728cd9" stroke-width="1.51"/><path d="M432,1187L514,1366L622,1212Z" fill="#7e97db" stroke="#7e97db" stroke-width="1.51"/><path d="M785,1566L862,1815L993,1738Z" fill="#6276cd" stroke="#6276cd" stroke-width="1.51"/><path d="M2372,1174L2390,1138L2332,1190Z" fill="#6079b6" stroke="#6079b6" stroke-width="1.51"/><path d="M1229,1765L1356,1828L1331,1569Z" fill="#647dc6" stroke="#647dc6" stroke-width="1.51"/><path d="M862,1815L1356,1828L1229,1765Z" fill="#647bc9" stroke="#647bc9" stroke-width="1.51"/><path d="M979,-239L1064,16L1220,-129Z" fill="#7299f3" stroke="#7299f3" stroke-width="1.51"/><path d="M1422,-243L979,-239L1220,-129Z" fill="#739bf1" stroke="#739bf1" stroke-width="1.51"/><path d="M1862,-151L2124,-259L1739,-217Z" fill="#6086d9" stroke="#6086d9" stroke-width="1.51"/><path d="M2065,100L2077,-77L1846,59Z" fill="#5d82d7" stroke="#5d82d7" stroke-width="1.51"/><path d="M2312,180L2144,359L2223,374Z" fill="#6d84d6" stroke="#6d84d6" stroke-width="1.51"/><path d="M2425,201L2312,180L2223,374Z" fill="#6079d3" stroke="#6079d3" stroke-width="1.51"/><path d="M2479,634L2292,486L2324,703Z" fill="#7087d0" stroke="#7087d0" stroke-width="1.51"/><path d="M2658,1212L2617,1054L2390,1138Z" fill="#556cb4" stroke="#556cb4" stroke-width="1.51"/><path d="M2332,1668L2300,1366L2026,1457Z" fill="#475eae" stroke="#475eae" stroke-width="1.51"/><path d="M2034,1664L2026,1457L1965,1560Z" fill="#5066b0" stroke="#5066b0" stroke-width="1.51"/><path d="M395,1116L361,1134L432,1187Z" fill="#7e9bdf" stroke="#7e9bdf" stroke-width="1.51"/><path d="M347,938L361,1134L395,1116Z" fill="#809fe4" stroke="#809fe4" stroke-width="1.51"/><path d="M2557,880L2479,634L2324,703Z" fill="#6c84cb" stroke="#6c84cb" stroke-width="1.51"/><path d="M2557,880L2324,703L2379,962Z" fill="#6c86c7" stroke="#6c86c7" stroke-width="1.51"/><path d="M2312,180L2240,65L2065,100Z" fill="#5778d4" stroke="#5778d4" stroke-width="1.51"/><path d="M541,1672L628,1555L514,1366Z" fill="#6276d2" stroke="#6276d2" stroke-width="1.51"/><path d="M514,1366L628,1555L695,1433Z" fill="#6f82d5" stroke="#6f82d5" stroke-width="1.51"/><path d="M1767,1706L2034,1664L1965,1560Z" fill="#5168b1" stroke="#5168b1" stroke-width="1.51"/><path d="M1980,1812L2034,1664L1767,1706Z" fill="#5167b1" stroke="#5167b1" stroke-width="1.51"/><path d="M979,-239L757,-180L866,35Z" fill="#7094f6" stroke="#7094f6" stroke-width="1.51"/><path d="M720,-81L409,-8L540,182Z" fill="#6c8df9" stroke="#6c8df9" stroke-width="1.51"/><path d="M277,140L294,403L459,302Z" fill="#7b96fb" stroke="#7b96fb" stroke-width="1.51"/><path d="M410,489L232,779L520,784Z" fill="#8eacf6" stroke="#8eacf6" stroke-width="1.51"/><path d="M141,1242L293,1252L361,1134Z" fill="#7191da" stroke="#7191da" stroke-width="1.51"/><path d="M459,302L294,403L410,489Z" fill="#8ca2fd" stroke="#8ca2fd" stroke-width="1.51"/><path d="M277,140L459,302L540,182Z" fill="#7894fa" stroke="#7894fa" stroke-width="1.51"/><path d="M2479,634L2510,472L2292,486Z" fill="#6b7fd1" stroke="#6b7fd1" stroke-width="1.51"/><path d="M2312,180L2441,-47L2240,65Z" fill="#456ad0" stroke="#456ad0" stroke-width="1.51"/><path d="M2600,569L2510,472L2479,634Z" fill="#6478cd" stroke="#6478cd" stroke-width="1.51"/><path d="M220,481L232,779L410,489Z" fill="#87a3f8" stroke="#87a3f8" stroke-width="1.51"/><path d="M2617,1054L2557,880L2379,962Z" fill="#6078bf" stroke="#6078bf" stroke-width="1.51"/><path d="M2617,1054L2379,962L2390,1138Z" fill="#5f78bb" stroke="#5f78bb" stroke-width="1.51"/><path d="M2507,344L2223,374L2292,486Z" fill="#7082d5" stroke="#7082d5" stroke-width="1.51"/><path d="M2186,-226L2124,-259L2077,-77Z" fill="#4e75d4" stroke="#4e75d4" stroke-width="1.51"/><path d="M600,1735L862,1815L785,1566Z" fill="#6173cf" stroke="#6173cf" stroke-width="1.51"/><path d="M993,1738L862,1815L1229,1765Z" fill="#6379cb" stroke="#6379cb" stroke-width="1.51"/><path d="M2693,364L2507,344L2510,472Z" fill="#6070d0" stroke="#6070d0" stroke-width="1.51"/><path d="M2510,472L2507,344L2292,486Z" fill="#697cd2" stroke="#697cd2" stroke-width="1.51"/><path d="M294,403L220,481L410,489Z" fill="#87a0fb" stroke="#87a0fb" stroke-width="1.51"/><path d="M184,494L220,481L147,305Z" fill="#7d99fb" stroke="#7d99fb" stroke-width="1.51"/><path d="M361,1134L293,1252L432,1187Z" fill="#7a97dc" stroke="#7a97dc" stroke-width="1.51"/><path d="M628,1555L600,1735L785,1566Z" fill="#6071d0" stroke="#6071d0" stroke-width="1.51"/><path d="M68,944L361,1134L347,938Z" fill="#7c9de6" stroke="#7c9de6" stroke-width="1.51"/><path d="M2034,1664L2332,1668L2026,1457Z" fill="#4159ac" stroke="#4159ac" stroke-width="1.51"/><path d="M1356,1828L1980,1812L1767,1706Z" fill="#586fb9" stroke="#586fb9" stroke-width="1.51"/><path d="M2557,880L2602,713L2479,634Z" fill="#657dc9" stroke="#657dc9" stroke-width="1.51"/><path d="M2602,713L2600,569L2479,634Z" fill="#6379cb" stroke="#6379cb" stroke-width="1.51"/><path d="M293,1252L323,1368L432,1187Z" fill="#718dd9" stroke="#718dd9" stroke-width="1.51"/><path d="M220,481L184,494L232,779Z" fill="#81a0f7" stroke="#81a0f7" stroke-width="1.51"/><path d="M232,779L68,944L347,938Z" fill="#7fa2ec" stroke="#7fa2ec" stroke-width="1.51"/><path d="M147,305L220,481L294,403Z" fill="#7f99fb" stroke="#7f99fb" stroke-width="1.51"/><path d="M511,-178L409,-8L720,-81Z" fill="#678bf8" stroke="#678bf8" stroke-width="1.51"/><path d="M332,1655L541,1672L514,1366Z" fill="#576dd0" stroke="#576dd0" stroke-width="1.51"/><path d="M2077,-77L2124,-259L1862,-151Z" fill="#577ed6" stroke="#577ed6" stroke-width="1.51"/><path d="M1739,-217L2124,-259L1422,-243Z" fill="#648bde" stroke="#648bde" stroke-width="1.51"/><path d="M1422,-243L637,-253L979,-239Z" fill="#7297f3" stroke="#7297f3" stroke-width="1.51"/><path d="M2186,-226L2077,-77L2240,65Z" fill="#4a72d3" stroke="#4a72d3" stroke-width="1.51"/><path d="M541,1672L600,1735L628,1555Z" fill="#5c6ed0" stroke="#5c6ed0" stroke-width="1.51"/><path d="M757,-180L637,-253L720,-81Z" fill="#6f91f8" stroke="#6f91f8" stroke-width="1.51"/><path d="M979,-239L637,-253L757,-180Z" fill="#7093f7" stroke="#7093f7" stroke-width="1.51"/><path d="M2124,-259L637,-253L1422,-243Z" fill="#7098ec" stroke="#7098ec" stroke-width="1.51"/><path d="M2557,880L2724,966L2602,713Z" fill="#627bc4" stroke="#627bc4" stroke-width="1.51"/><path d="M2823,561L2693,364L2600,569Z" fill="#6174ce" stroke="#6174ce" stroke-width="1.51"/><path d="M2658,1212L2390,1138L2372,1174Z" fill="#5970b4" stroke="#5970b4" stroke-width="1.51"/><path d="M2561,1372L2372,1174L2300,1366Z" fill="#5067b0" stroke="#5067b0" stroke-width="1.51"/><path d="M2441,-47L2312,180L2425,201Z" fill="#4669d0" stroke="#4669d0" stroke-width="1.51"/><path d="M2417,-159L2186,-226L2240,65Z" fill="#3f6ad1" stroke="#3f6ad1" stroke-width="1.51"/><path d="M1980,1812L2153,1770L2034,1664Z" fill="#475dae" stroke="#475dae" stroke-width="1.51"/><path d="M409,-8L277,140L540,182Z" fill="#6a8cf9" stroke="#6a8cf9" stroke-width="1.51"/><path d="M637,-253L511,-178L720,-81Z" fill="#6d8ef9" stroke="#6d8ef9" stroke-width="1.51"/><path d="M409,-8L217,40L277,140Z" fill="#5983f7" stroke="#5983f7" stroke-width="1.51"/><path d="M2153,1770L2332,1668L2034,1664Z" fill="#3e55ab" stroke="#3e55ab" stroke-width="1.51"/><path d="M2516,1462L2561,1372L2300,1366Z" fill="#4057ac" stroke="#4057ac" stroke-width="1.51"/><path d="M127,99L147,305L277,140Z" fill="#6087f8" stroke="#6087f8" stroke-width="1.51"/><path d="M277,140L147,305L294,403Z" fill="#7392fa" stroke="#7392fa" stroke-width="1.51"/><path d="M51,726L68,944L232,779Z" fill="#7ba1f0" stroke="#7ba1f0" stroke-width="1.51"/><path d="M2667,99L2441,-47L2425,201Z" fill="#345ecd" stroke="#345ecd" stroke-width="1.51"/><path d="M2667,99L2425,201L2507,344Z" fill="#4966ce" stroke="#4966ce" stroke-width="1.51"/><path d="M2332,1668L2516,1462L2300,1366Z" fill="#3951ab" stroke="#3951ab" stroke-width="1.51"/><path d="M51,726L232,779L184,494Z" fill="#7ea0f4" stroke="#7ea0f4" stroke-width="1.51"/><path d="M293,1252L141,1242L323,1368Z" fill="#6887d8" stroke="#6887d8" stroke-width="1.51"/><path d="M14,732L51,726L-75,510Z" fill="#7298f3" stroke="#7298f3" stroke-width="1.51"/><path d="M323,1368L332,1655L514,1366Z" fill="#5e77d3" stroke="#5e77d3" stroke-width="1.51"/><path d="M44,1135L141,1242L361,1134Z" fill="#6f8fdc" stroke="#6f8fdc" stroke-width="1.51"/><path d="M2734,1186L2658,1212L2760,1428Z" fill="#485fae" stroke="#485fae" stroke-width="1.51"/><path d="M2561,1372L2658,1212L2372,1174Z" fill="#4d64af" stroke="#4d64af" stroke-width="1.51"/><path d="M2617,1054L2724,966L2557,880Z" fill="#5d75be" stroke="#5d75be" stroke-width="1.51"/><path d="M2815,1081L2724,966L2617,1054Z" fill="#5a71ba" stroke="#5a71ba" stroke-width="1.51"/><path d="M2600,569L2693,364L2510,472Z" fill="#6173cf" stroke="#6173cf" stroke-width="1.51"/><path d="M2776,646L2600,569L2602,713Z" fill="#6379cb" stroke="#6379cb" stroke-width="1.51"/><path d="M338,-201L217,40L409,-8Z" fill="#5180f6" stroke="#5180f6" stroke-width="1.51"/><path d="M51,726L14,732L68,944Z" fill="#779ff0" stroke="#779ff0" stroke-width="1.51"/><path d="M68,944L44,1135L361,1134Z" fill="#7194e1" stroke="#7194e1" stroke-width="1.51"/><path d="M-75,510L51,726L184,494Z" fill="#7598f5" stroke="#7598f5" stroke-width="1.51"/><path d="M-75,510L184,494L147,305Z" fill="#7695f9" stroke="#7695f9" stroke-width="1.51"/><path d="M2441,-47L2417,-159L2240,65Z" fill="#3563ce" stroke="#3563ce" stroke-width="1.51"/><path d="M2186,-226L2581,-182L2124,-259Z" fill="#3e68d0" stroke="#3e68d0" stroke-width="1.51"/><path d="M2581,-182L2417,-159L2441,-47Z" fill="#255bcc" stroke="#255bcc" stroke-width="1.51"/><path d="M160,1441L332,1655L323,1368Z" fill="#516ed1" stroke="#516ed1" stroke-width="1.51"/><path d="M541,1672L444,1840L600,1735Z" fill="#576ccf" stroke="#576ccf" stroke-width="1.51"/><path d="M600,1735L444,1840L862,1815Z" fill="#6071d0" stroke="#6071d0" stroke-width="1.51"/><path d="M2724,966L2776,646L2602,713Z" fill="#657dc8" stroke="#657dc8" stroke-width="1.51"/><path d="M-56,1047L44,1135L68,944Z" fill="#6890e1" stroke="#6890e1" stroke-width="1.51"/><path d="M141,1242L160,1441L323,1368Z" fill="#5d7cd5" stroke="#5d7cd5" stroke-width="1.51"/><path d="M2391,1803L2478,1637L2332,1668Z" fill="#2544a7" stroke="#2544a7" stroke-width="1.51"/><path d="M2332,1668L2478,1637L2516,1462Z" fill="#2142a6" stroke="#2142a6" stroke-width="1.51"/><path d="M2516,1462L2760,1428L2561,1372Z" fill="#334ea9" stroke="#334ea9" stroke-width="1.51"/><path d="M-1,1371L160,1441L141,1242Z" fill="#5477d4" stroke="#5477d4" stroke-width="1.51"/><path d="M2909,485L2823,561L2998,713Z" fill="#6377cc" stroke="#6377cc" stroke-width="1.51"/><path d="M2658,1212L2734,1186L2617,1054Z" fill="#546bb4" stroke="#546bb4" stroke-width="1.51"/><path d="M2760,1428L2658,1212L2561,1372Z" fill="#4057ac" stroke="#4057ac" stroke-width="1.51"/><path d="M2478,1637L2551,1569L2516,1462Z" fill="#1e41a6" stroke="#1e41a6" stroke-width="1.51"/><path d="M637,-253L338,-201L511,-178Z" fill="#6288f8" stroke="#6288f8" stroke-width="1.51"/><path d="M511,-178L338,-201L409,-8Z" fill="#5b85f7" stroke="#5b85f7" stroke-width="1.51"/><path d="M42,51L127,99L217,40Z" fill="#477cf6" stroke="#477cf6" stroke-width="1.51"/><path d="M217,40L127,99L277,140Z" fill="#5582f7" stroke="#5582f7" stroke-width="1.51"/><path d="M2831,151L2667,99L2693,364Z" fill="#4563cd" stroke="#4563cd" stroke-width="1.51"/><path d="M2693,364L2667,99L2507,344Z" fill="#4f68ce" stroke="#4f68ce" stroke-width="1.51"/><path d="M296,1805L444,1840L332,1655Z" fill="#4864ce" stroke="#4864ce" stroke-width="1.51"/><path d="M332,1655L444,1840L541,1672Z" fill="#4f68ce" stroke="#4f68ce" stroke-width="1.51"/><path d="M862,1815L444,1840L1356,1828Z" fill="#6276cd" stroke="#6276cd" stroke-width="1.51"/><path d="M44,1135L-1,1371L141,1242Z" fill="#5e82d7" stroke="#5e82d7" stroke-width="1.51"/><path d="M14,732L-43,938L68,944Z" fill="#7199ec" stroke="#7199ec" stroke-width="1.51"/><path d="M-214,945L-43,938L14,732Z" fill="#7098ec" stroke="#7098ec" stroke-width="1.51"/><path d="M2153,1770L2334,1852L2332,1668Z" fill="#334ea9" stroke="#334ea9" stroke-width="1.51"/><path d="M2478,1637L2653,1720L2551,1569Z" fill="#0039a3" stroke="#0039a3" stroke-width="1.51"/><path d="M1980,1812L2334,1852L2153,1770Z" fill="#3f56ac" stroke="#3f56ac" stroke-width="1.51"/><path d="M1356,1828L2334,1852L1980,1812Z" fill="#5269b2" stroke="#5269b2" stroke-width="1.51"/><path d="M444,1840L2334,1852L1356,1828Z" fill="#627ac4" stroke="#627ac4" stroke-width="1.51"/><path d="M2776,646L2823,561L2600,569Z" fill="#6377cc" stroke="#6377cc" stroke-width="1.51"/><path d="M2998,713L2776,646L2724,966Z" fill="#657dc8" stroke="#657dc8" stroke-width="1.51"/><path d="M2334,1852L2391,1803L2332,1668Z" fill="#2b48a8" stroke="#2b48a8" stroke-width="1.51"/><path d="M2734,1186L2815,1081L2617,1054Z" fill="#566db6" stroke="#566db6" stroke-width="1.51"/><path d="M2904,1105L2815,1081L2734,1186Z" fill="#556cb5" stroke="#556cb5" stroke-width="1.51"/><path d="M-43,938L-56,1047L68,944Z" fill="#6a93e5" stroke="#6a93e5" stroke-width="1.51"/><path d="M-97,378L-75,510L147,305Z" fill="#6f8ff9" stroke="#6f8ff9" stroke-width="1.51"/><path d="M-214,945L-170,1080L-56,1047Z" fill="#6890e3" stroke="#6890e3" stroke-width="1.51"/><path d="M2667,99L2674,3L2441,-47Z" fill="#1b56cb" stroke="#1b56cb" stroke-width="1.51"/><path d="M2772,-34L2674,3L2667,99Z" fill="#1c56cb" stroke="#1c56cb" stroke-width="1.51"/><path d="M2909,485L2838,318L2693,364Z" fill="#5f70d0" stroke="#5f70d0" stroke-width="1.51"/><path d="M2909,485L2693,364L2823,561Z" fill="#6173cf" stroke="#6173cf" stroke-width="1.51"/><path d="M178,1674L296,1805L332,1655Z" fill="#3f60cd" stroke="#3f60cd" stroke-width="1.51"/><path d="M178,1674L332,1655L160,1441Z" fill="#3c5fcd" stroke="#3c5fcd" stroke-width="1.51"/><path d="M2674,3L2581,-182L2441,-47Z" fill="#1355ca" stroke="#1355ca" stroke-width="1.51"/><path d="M2417,-159L2581,-182L2186,-226Z" fill="#3261ce" stroke="#3261ce" stroke-width="1.51"/><path d="M2772,-34L2581,-182L2674,3Z" fill="#1355ca" stroke="#1355ca" stroke-width="1.51"/><path d="M-22,1647L178,1674L160,1441Z" fill="#2c5bcc" stroke="#2c5bcc" stroke-width="1.51"/><path d="M-83,1192L-1,1371L44,1135Z" fill="#5b82d7" stroke="#5b82d7" stroke-width="1.51"/><path d="M127,99L-65,153L147,305Z" fill="#5682f7" stroke="#5682f7" stroke-width="1.51"/><path d="M175,-241L42,51L217,40Z" fill="#3c78f5" stroke="#3c78f5" stroke-width="1.51"/><path d="M2551,1569L2760,1428L2516,1462Z" fill="#2846a7" stroke="#2846a7" stroke-width="1.51"/><path d="M2653,1720L2760,1428L2551,1569Z" fill="#0f3ca4" stroke="#0f3ca4" stroke-width="1.51"/><path d="M-170,1080L-83,1192L-56,1047Z" fill="#648bde" stroke="#648bde" stroke-width="1.51"/><path d="M-65,153L-97,378L147,305Z" fill="#5d86f8" stroke="#5d86f8" stroke-width="1.51"/><path d="M-56,1047L-83,1192L44,1135Z" fill="#638add" stroke="#638add" stroke-width="1.51"/><path d="M-196,640L14,732L-75,510Z" fill="#7297f4" stroke="#7297f4" stroke-width="1.51"/><path d="M2998,713L2823,561L2776,646Z" fill="#6379cb" stroke="#6379cb" stroke-width="1.51"/><path d="M2815,1081L3015,939L2724,966Z" fill="#5b73bc" stroke="#5b73bc" stroke-width="1.51"/><path d="M2965,1292L2904,1105L2734,1186Z" fill="#5268b1" stroke="#5268b1" stroke-width="1.51"/><path d="M2921,248L2831,151L2838,318Z" fill="#4a65ce" stroke="#4a65ce" stroke-width="1.51"/><path d="M2838,318L2831,151L2693,364Z" fill="#5068cf" stroke="#5068cf" stroke-width="1.51"/><path d="M-22,1647L167,1733L178,1674Z" fill="#2a5acb" stroke="#2a5acb" stroke-width="1.51"/><path d="M178,1674L167,1733L296,1805Z" fill="#385ecc" stroke="#385ecc" stroke-width="1.51"/><path d="M637,-253L175,-241L338,-201Z" fill="#5883f7" stroke="#5883f7" stroke-width="1.51"/><path d="M338,-201L175,-241L217,40Z" fill="#487df6" stroke="#487df6" stroke-width="1.51"/><path d="M-4,14L-65,153L42,51Z" fill="#3777f4" stroke="#3777f4" stroke-width="1.51"/><path d="M42,51L-65,153L127,99Z" fill="#437af5" stroke="#437af5" stroke-width="1.51"/><path d="M175,-241L-4,14L42,51Z" fill="#3075f4" stroke="#3075f4" stroke-width="1.51"/><path d="M2965,1292L3015,939L2904,1105Z" fill="#556db6" stroke="#556db6" stroke-width="1.51"/><path d="M2391,1803L2653,1720L2478,1637Z" fill="#113ca4" stroke="#113ca4" stroke-width="1.51"/><path d="M2334,1852L2653,1720L2391,1803Z" fill="#1b40a5" stroke="#1b40a5" stroke-width="1.51"/><path d="M-209,552L-196,640L-75,510Z" fill="#7195f5" stroke="#7195f5" stroke-width="1.51"/><path d="M-209,552L-75,510L-97,378Z" fill="#7092f7" stroke="#7092f7" stroke-width="1.51"/><path d="M2831,151L2772,-34L2667,99Z" fill="#2b5acb" stroke="#2b5acb" stroke-width="1.51"/><path d="M-181,1645L-22,1647L-1,1371Z" fill="#245acc" stroke="#245acc" stroke-width="1.51"/><path d="M-1,1371L-22,1647L160,1441Z" fill="#3964cf" stroke="#3964cf" stroke-width="1.51"/><path d="M-214,945L-56,1047L-43,938Z" fill="#6a93e5" stroke="#6a93e5" stroke-width="1.51"/><path d="M3001,323L2921,248L2838,318Z" fill="#5269cf" stroke="#5269cf" stroke-width="1.51"/><path d="M3015,939L2998,713L2724,966Z" fill="#617ac3" stroke="#617ac3" stroke-width="1.51"/><path d="M-196,640L-214,945L14,732Z" fill="#739cf0" stroke="#739cf0" stroke-width="1.51"/><path d="M-218,325L-209,552L-97,378Z" fill="#6f90f9" stroke="#6f90f9" stroke-width="1.51"/><path d="M3001,323L2838,318L2909,485Z" fill="#5d6fd0" stroke="#5d6fd0" stroke-width="1.51"/><path d="M3033,-55L2818,-169L2772,-34Z" fill="#1355ca" stroke="#1355ca" stroke-width="1.51"/><path d="M-209,552L-214,945L-196,640Z" fill="#739af2" stroke="#739af2" stroke-width="1.51"/><path d="M2904,1105L3015,939L2815,1081Z" fill="#5971ba" stroke="#5971ba" stroke-width="1.51"/><path d="M2965,1292L2734,1186L2760,1428Z" fill="#455cad" stroke="#455cad" stroke-width="1.51"/><path d="M-65,153L-184,230L-97,378Z" fill="#5a84f7" stroke="#5a84f7" stroke-width="1.51"/><path d="M-286,-60L-184,230L-65,153Z" fill="#4079f5" stroke="#4079f5" stroke-width="1.51"/><path d="M-286,-60L-65,153L-4,14Z" fill="#2d74f4" stroke="#2d74f4" stroke-width="1.51"/><path d="M3028,1490L2965,1292L2760,1428Z" fill="#3650aa" stroke="#3650aa" stroke-width="1.51"/><path d="M-209,552L-317,1249L-214,945Z" fill="#6e96e9" stroke="#6e96e9" stroke-width="1.51"/><path d="M-184,230L-218,325L-97,378Z" fill="#6388f8" stroke="#6388f8" stroke-width="1.51"/><path d="M2998,713L3001,323L2909,485Z" fill="#6275ce" stroke="#6275ce" stroke-width="1.51"/><path d="M3033,-55L2772,-34L2831,151Z" fill="#1c56cb" stroke="#1c56cb" stroke-width="1.51"/><path d="M3015,939L3001,323L2998,713Z" fill="#6379ca" stroke="#6379ca" stroke-width="1.51"/><path d="M-317,1249L-83,1192L-170,1080Z" fill="#6087da" stroke="#6087da" stroke-width="1.51"/><path d="M-267,1468L-1,1371L-83,1192Z" fill="#4c74d3" stroke="#4c74d3" stroke-width="1.51"/><path d="M167,1733L-84,1792L296,1805Z" fill="#2c5acc" stroke="#2c5acc" stroke-width="1.51"/><path d="M3033,-55L2831,151L2921,248Z" fill="#355ccc" stroke="#355ccc" stroke-width="1.51"/><path d="M2772,-34L2818,-169L2581,-182Z" fill="#1355ca" stroke="#1355ca" stroke-width="1.51"/><path d="M2581,-182L3049,-199L2124,-259Z" fill="#1355ca" stroke="#1355ca" stroke-width="1.51"/><path d="M2653,1720L2871,1657L2760,1428Z" fill="#0039a3" stroke="#0039a3" stroke-width="1.51"/><path d="M2880,1736L2871,1657L2653,1720Z" fill="#0039a3" stroke="#0039a3" stroke-width="1.51"/><path d="M-184,230L-286,-60L-218,325Z" fill="#4b7ef6" stroke="#4b7ef6" stroke-width="1.51"/><path d="M175,-241L-104,-157L-4,14Z" fill="#2673f3" stroke="#2673f3" stroke-width="1.51"/><path d="M-214,945L-317,1249L-170,1080Z" fill="#648cde" stroke="#648cde" stroke-width="1.51"/><path d="M-286,-60L-317,1249L-209,552Z" fill="#7195f5" stroke="#7195f5" stroke-width="1.51"/><path d="M2871,1657L3028,1490L2760,1428Z" fill="#1f41a6" stroke="#1f41a6" stroke-width="1.51"/><path d="M2334,1852L2880,1736L2653,1720Z" fill="#0039a3" stroke="#0039a3" stroke-width="1.51"/><path d="M3059,1560L3028,1490L2871,1657Z" fill="#113ca4" stroke="#113ca4" stroke-width="1.51"/><path d="M2965,1292L3028,1490L3015,939Z" fill="#4d63af" stroke="#4d63af" stroke-width="1.51"/><path d="M3015,939L3033,-55L3001,323Z" fill="#6071d0" stroke="#6071d0" stroke-width="1.51"/><path d="M-22,1647L-84,1792L167,1733Z" fill="#1956ca" stroke="#1956ca" stroke-width="1.51"/><path d="M296,1805L-249,1826L444,1840Z" fill="#325ccc" stroke="#325ccc" stroke-width="1.51"/><path d="M-181,1645L-84,1792L-22,1647Z" fill="#1355ca" stroke="#1355ca" stroke-width="1.51"/><path d="M-317,1249L-267,1468L-83,1192Z" fill="#5279d5" stroke="#5279d5" stroke-width="1.51"/><path d="M-267,1468L-181,1645L-1,1371Z" fill="#3261ce" stroke="#3261ce" stroke-width="1.51"/><path d="M3049,-199L3033,-55L3015,939Z" fill="#4964ce" stroke="#4964ce" stroke-width="1.51"/><path d="M3001,323L3033,-55L2921,248Z" fill="#3f61cd" stroke="#3f61cd" stroke-width="1.51"/><path d="M3028,1490L3059,1560L3015,939Z" fill="#4158ac" stroke="#4158ac" stroke-width="1.51"/><path d="M3014,1780L3059,1560L2871,1657Z" fill="#0039a3" stroke="#0039a3" stroke-width="1.51"/><path d="M-104,-157L-286,-60L-4,14Z" fill="#2172f3" stroke="#2172f3" stroke-width="1.51"/><path d="M-218,325L-286,-60L-209,552Z" fill="#5d86f7" stroke="#5d86f7" stroke-width="1.51"/><path d="M-104,-157L-253,-194L-286,-60Z" fill="#2172f3" stroke="#2172f3" stroke-width="1.51"/><path d="M175,-241L-253,-194L-104,-157Z" fill="#2172f3" stroke="#2172f3" stroke-width="1.51"/><path d="M3033,-55L3049,-199L2818,-169Z" fill="#1355ca" stroke="#1355ca" stroke-width="1.51"/><path d="M2818,-169L3049,-199L2581,-182Z" fill="#1355ca" stroke="#1355ca" stroke-width="1.51"/><path d="M3059,1560L3049,-199L3015,939Z" fill="#647dc8" stroke="#647dc8" stroke-width="1.51"/><path d="M2334,1852L3014,1780L2880,1736Z" fill="#0039a3" stroke="#0039a3" stroke-width="1.51"/><path d="M2880,1736L3014,1780L2871,1657Z" fill="#0039a3" stroke="#0039a3" stroke-width="1.51"/><path d="M-267,1468L-249,1826L-181,1645Z" fill="#1355ca" stroke="#1355ca" stroke-width="1.51"/><path d="M-181,1645L-249,1826L-84,1792Z" fill="#1355ca" stroke="#1355ca" stroke-width="1.51"/><path d="M-84,1792L-249,1826L296,1805Z" fill="#1355ca" stroke="#1355ca" stroke-width="1.51"/><path d="M-317,1249L-249,1826L-267,1468Z" fill="#2e5fcd" stroke="#2e5fcd" stroke-width="1.51"/></svg>