<svg xmlns="http://www.w3.org/2000/svg" width="2560" height="1600"><path d="M1401,843L1474,777L1307,780Z" fill="#64a9d3" stroke="#64a9d3" stroke-width="1.51"/><path d="M1406,478L1204,711L1307,780Z" fill="#7db7da" stroke="#7db7da" stroke-width="1.51"/><path d="M1162,889L1409,994L1401,843Z" fill="#5ea4d0" stroke="#5ea4d0" stroke-width="1.51"/><path d="M1401,843L1609,837L1474,777Z" fill="#5ca3cf" stroke="#5ca3cf" stroke-width="1.51"/><path d="M1401,843L1409,994L1609,837Z" fill="#579fcd" stroke="#579fcd" stroke-width="1.51"/><path d="M1162,889L1401,843L1307,780Z" fill="#67abd4" stroke="#67abd4" stroke-width="1.51"/><path d="M1204,711L1162,889L1307,780Z" fill="#71b1d7" stroke="#71b1d7" stroke-width="1.51"/><path d="M1474,777L1406,478L1307,780Z" fill="#75b1d7" stroke="#75b1d7" stroke-width="1.51"/><path d="M1609,837L1659,704L1474,777Z" fill="#5da3cf" stroke="#5da3cf" stroke-width="1.51"/><path d="M1547,461L1406,478L1474,777Z" fill="#7eb4d8" stroke="#7eb4d8" stroke-width="1.51"/><path d="M1609,837L1657,873L1659,704Z" fill="#559dcd" stroke="#559dcd" stroke-width="1.51"/><path d="M1409,994L1657,873L1609,837Z" fill="#509bcb" stroke="#509bcb" stroke-width="1.51"/><path d="M1406,478L1138,587L1204,711Z" fill="#89bedd" stroke="#89bedd" stroke-width="1.51"/><path d="M1204,711L1045,766L1162,889Z" fill="#79b5d9" stroke="#79b5d9" stroke-width="1.51"/><path d="M1659,704L1547,461L1474,777Z" fill="#71acd3" stroke="#71acd3" stroke-width="1.51"/><path d="M1071,598L1045,766L1204,711Z" fill="#88bddc" stroke="#88bddc" stroke-width="1.51"/><path d="M1138,587L1071,598L1204,711Z" fill="#8dbfdd" stroke="#8dbfdd" stroke-width="1.51"/><path d="M935,428L1071,598L1138,587Z" fill="#9ec8e2" stroke="#9ec8e2" stroke-width="1.51"/><path d="M1406,478L1256,289L1138,587Z" fill="#96c3e1" stroke="#96c3e1" stroke-width="1.51"/><path d="M1547,461L1474,382L1406,478Z" fill="#8cbadc" stroke="#8cbadc" stroke-width="1.51"/><path d="M1409,994L1524,1126L1657,873Z" fill="#4895c8" stroke="#4895c8" stroke-width="1.51"/><path d="M1292,1186L1524,1126L1409,994Z" fill="#4992c6" stroke="#4992c6" stroke-width="1.51"/><path d="M1045,766L1012,875L1162,889Z" fill="#79b4d8" stroke="#79b4d8" stroke-width="1.51"/><path d="M1162,889L1168,1113L1409,994Z" fill="#5ba1cf" stroke="#5ba1cf" stroke-width="1.51"/><path d="M897,866L1012,875L1045,766Z" fill="#80b8da" stroke="#80b8da" stroke-width="1.51"/><path d="M1474,382L1417,359L1406,478Z" fill="#93bddf" stroke="#93bddf" stroke-width="1.51"/><path d="M964,1041L1168,1113L1162,889Z" fill="#68a7d1" stroke="#68a7d1" stroke-width="1.51"/><path d="M1168,1113L1292,1186L1409,994Z" fill="#5197ca" stroke="#5197ca" stroke-width="1.51"/><path d="M1789,478L1660,353L1547,461Z" fill="#85b1d8" stroke="#85b1d8" stroke-width="1.51"/><path d="M1547,461L1660,353L1474,382Z" fill="#8cb7dc" stroke="#8cb7dc" stroke-width="1.51"/><path d="M1657,873L1867,715L1659,704Z" fill="#599ccc" stroke="#599ccc" stroke-width="1.51"/><path d="M1896,834L1867,715L1657,873Z" fill="#5095c8" stroke="#5095c8" stroke-width="1.51"/><path d="M1789,478L1547,461L1659,704Z" fill="#78acd4" stroke="#78acd4" stroke-width="1.51"/><path d="M1474,382L1488,190L1417,359Z" fill="#97bfe0" stroke="#97bfe0" stroke-width="1.51"/><path d="M1878,559L1789,478L1659,704Z" fill="#71a5d0" stroke="#71a5d0" stroke-width="1.51"/><path d="M1264,238L1256,289L1417,359Z" fill="#a0c7e4" stroke="#a0c7e4" stroke-width="1.51"/><path d="M1417,359L1256,289L1406,478Z" fill="#99c2e1" stroke="#99c2e1" stroke-width="1.51"/><path d="M1524,1126L1710,1142L1657,873Z" fill="#3d8cc3" stroke="#3d8cc3" stroke-width="1.51"/><path d="M1693,1182L1710,1142L1524,1126Z" fill="#3583bf" stroke="#3583bf" stroke-width="1.51"/><path d="M1012,875L964,1041L1162,889Z" fill="#73aed5" stroke="#73aed5" stroke-width="1.51"/><path d="M808,726L897,866L1045,766Z" fill="#8bbedd" stroke="#8bbedd" stroke-width="1.51"/><path d="M808,726L1045,766L820,586Z" fill="#97c5e0" stroke="#97c5e0" stroke-width="1.51"/><path d="M1710,1142L1896,834L1657,873Z" fill="#418dc4" stroke="#418dc4" stroke-width="1.51"/><path d="M897,866L964,1041L1012,875Z" fill="#7bb3d7" stroke="#7bb3d7" stroke-width="1.51"/><path d="M1168,1113L1255,1326L1292,1186Z" fill="#4f90c6" stroke="#4f90c6" stroke-width="1.51"/><path d="M1710,1142L1927,1113L1896,834Z" fill="#3583be" stroke="#3583be" stroke-width="1.51"/><path d="M1620,1247L1693,1182L1524,1126Z" fill="#3482be" stroke="#3482be" stroke-width="1.51"/><path d="M1789,478L1789,229L1660,353Z" fill="#89b0d8" stroke="#89b0d8" stroke-width="1.51"/><path d="M1867,715L1878,559L1659,704Z" fill="#659fcd" stroke="#659fcd" stroke-width="1.51"/><path d="M2072,689L1878,559L1867,715Z" fill="#6297c9" stroke="#6297c9" stroke-width="1.51"/><path d="M1256,289L935,428L1138,587Z" fill="#a4cae4" stroke="#a4cae4" stroke-width="1.51"/><path d="M1408,178L1264,238L1417,359Z" fill="#a0c6e4" stroke="#a0c6e4" stroke-width="1.51"/><path d="M1591,1383L1620,1247L1395,1439Z" fill="#3377b5" stroke="#3377b5" stroke-width="1.51"/><path d="M1007,106L935,428L1256,289Z" fill="#b2d3e8" stroke="#b2d3e8" stroke-width="1.51"/><path d="M1660,353L1488,190L1474,382Z" fill="#93bcde" stroke="#93bcde" stroke-width="1.51"/><path d="M1789,229L1488,190L1660,353Z" fill="#92b8dd" stroke="#92b8dd" stroke-width="1.51"/><path d="M1488,190L1408,178L1417,359Z" fill="#9dc3e2" stroke="#9dc3e2" stroke-width="1.51"/><path d="M820,586L1045,766L1071,598Z" fill="#97c5df" stroke="#97c5df" stroke-width="1.51"/><path d="M792,1129L976,1297L964,1041Z" fill="#6fa1ce" stroke="#6fa1ce" stroke-width="1.51"/><path d="M1395,1439L1620,1247L1524,1126Z" fill="#3880bb" stroke="#3880bb" stroke-width="1.51"/><path d="M976,1297L1255,1326L1168,1113Z" fill="#5991c5" stroke="#5991c5" stroke-width="1.51"/><path d="M935,428L820,586L1071,598Z" fill="#a6cde3" stroke="#a6cde3" stroke-width="1.51"/><path d="M1728,1498L1846,1186L1693,1182Z" fill="#2872b4" stroke="#2872b4" stroke-width="1.51"/><path d="M1693,1182L1846,1186L1710,1142Z" fill="#2e7cbb" stroke="#2e7cbb" stroke-width="1.51"/><path d="M1846,1186L1927,1113L1710,1142Z" fill="#2c7aba" stroke="#2c7aba" stroke-width="1.51"/><path d="M1896,834L2072,689L1867,715Z" fill="#5491c6" stroke="#5491c6" stroke-width="1.51"/><path d="M935,428L841,400L820,586Z" fill="#b1d2e7" stroke="#b1d2e7" stroke-width="1.51"/><path d="M1007,106L841,400L935,428Z" fill="#bad7ea" stroke="#bad7ea" stroke-width="1.51"/><path d="M1007,106L1256,289L1264,238Z" fill="#afd0e9" stroke="#afd0e9" stroke-width="1.51"/><path d="M1395,1439L1524,1126L1292,1186Z" fill="#4185bf" stroke="#4185bf" stroke-width="1.51"/><path d="M1620,1247L1728,1498L1693,1182Z" fill="#2b74b4" stroke="#2b74b4" stroke-width="1.51"/><path d="M1957,282L1789,229L1789,478Z" fill="#86abd6" stroke="#86abd6" stroke-width="1.51"/><path d="M1488,190L1496,42L1408,178Z" fill="#a3c6e4" stroke="#a3c6e4" stroke-width="1.51"/><path d="M964,1041L976,1297L1168,1113Z" fill="#669dcc" stroke="#669dcc" stroke-width="1.51"/><path d="M1255,1326L1395,1439L1292,1186Z" fill="#4583bd" stroke="#4583bd" stroke-width="1.51"/><path d="M792,1129L964,1041L897,866Z" fill="#79aed5" stroke="#79aed5" stroke-width="1.51"/><path d="M1158,1505L1395,1439L1255,1326Z" fill="#457cb6" stroke="#457cb6" stroke-width="1.51"/><path d="M2106,875L2072,689L1896,834Z" fill="#4989c1" stroke="#4989c1" stroke-width="1.51"/><path d="M1878,559L1957,282L1789,478Z" fill="#7da5d2" stroke="#7da5d2" stroke-width="1.51"/><path d="M671,861L792,1129L897,866Z" fill="#85b6da" stroke="#85b6da" stroke-width="1.51"/><path d="M1064,16L1007,106L1264,238Z" fill="#b9d7eb" stroke="#b9d7eb" stroke-width="1.51"/><path d="M1688,-1L1496,42L1488,190Z" fill="#a1c4e2" stroke="#a1c4e2" stroke-width="1.51"/><path d="M1927,1113L2106,875L1896,834Z" fill="#3a82be" stroke="#3a82be" stroke-width="1.51"/><path d="M808,726L671,861L897,866Z" fill="#8fbfdf" stroke="#8fbfdf" stroke-width="1.51"/><path d="M628,662L671,861L808,726Z" fill="#9dc6e3" stroke="#9dc6e3" stroke-width="1.51"/><path d="M628,662L808,726L820,586Z" fill="#a4cbe4" stroke="#a4cbe4" stroke-width="1.51"/><path d="M2144,359L1957,282L1878,559Z" fill="#7ea0cf" stroke="#7ea0cf" stroke-width="1.51"/><path d="M1789,229L1688,-1L1488,190Z" fill="#9abdde" stroke="#9abdde" stroke-width="1.51"/><path d="M841,400L686,516L820,586Z" fill="#b3d2e8" stroke="#b3d2e8" stroke-width="1.51"/><path d="M792,1129L788,1205L976,1297Z" fill="#719ecd" stroke="#719ecd" stroke-width="1.51"/><path d="M622,1212L788,1205L792,1129Z" fill="#7aa3d1" stroke="#7aa3d1" stroke-width="1.51"/><path d="M1189,-26L1264,238L1408,178Z" fill="#accee8" stroke="#accee8" stroke-width="1.51"/><path d="M841,400L665,320L686,516Z" fill="#c0d8ec" stroke="#c0d8ec" stroke-width="1.51"/><path d="M1927,1113L2053,1132L2106,875Z" fill="#2d78b7" stroke="#2d78b7" stroke-width="1.51"/><path d="M2095,1306L2053,1132L1927,1113Z" fill="#206db1" stroke="#206db1" stroke-width="1.51"/><path d="M2095,1306L1927,1113L1846,1186Z" fill="#206fb3" stroke="#206fb3" stroke-width="1.51"/><path d="M686,516L628,662L820,586Z" fill="#afd1e7" stroke="#afd1e7" stroke-width="1.51"/><path d="M976,1297L1158,1505L1255,1326Z" fill="#5486bd" stroke="#5486bd" stroke-width="1.51"/><path d="M983,1458L1158,1505L976,1297Z" fill="#5b86ba" stroke="#5b86ba" stroke-width="1.51"/><path d="M1496,42L1424,-30L1408,178Z" fill="#a8cae5" stroke="#a8cae5" stroke-width="1.51"/><path d="M1535,-108L1424,-30L1496,42Z" fill="#aacae6" stroke="#aacae6" stroke-width="1.51"/><path d="M2072,689L2155,538L1878,559Z" fill="#6796c7" stroke="#6796c7" stroke-width="1.51"/><path d="M2324,703L2155,538L2072,689Z" fill="#5e8bbf" stroke="#5e8bbf" stroke-width="1.51"/><path d="M1957,282L1960,191L1789,229Z" fill="#8babd6" stroke="#8babd6" stroke-width="1.51"/><path d="M2144,359L1960,191L1957,282Z" fill="#85a3d1" stroke="#85a3d1" stroke-width="1.51"/><path d="M1424,-30L1189,-26L1408,178Z" fill="#afd0e8" stroke="#afd0e8" stroke-width="1.51"/><path d="M797,1499L983,1458L976,1297Z" fill="#648abd" stroke="#648abd" stroke-width="1.51"/><path d="M765,148L665,320L841,400Z" fill="#c6dcee" stroke="#c6dcee" stroke-width="1.51"/><path d="M1189,-26L1064,16L1264,238Z" fill="#b8d6eb" stroke="#b8d6eb" stroke-width="1.51"/><path d="M1158,1505L1331,1569L1395,1439Z" fill="#4174ab" stroke="#4174ab" stroke-width="1.51"/><path d="M1478,1653L1728,1498L1591,1383Z" fill="#2a67a2" stroke="#2a67a2" stroke-width="1.51"/><path d="M1591,1383L1728,1498L1620,1247Z" fill="#2a70b1" stroke="#2a70b1" stroke-width="1.51"/><path d="M1124,1556L1331,1569L1158,1505Z" fill="#4874a8" stroke="#4874a8" stroke-width="1.51"/><path d="M1478,1653L1591,1383L1395,1439Z" fill="#346da8" stroke="#346da8" stroke-width="1.51"/><path d="M1846,59L1688,-1L1789,229Z" fill="#98b8dc" stroke="#98b8dc" stroke-width="1.51"/><path d="M1960,191L1846,59L1789,229Z" fill="#91b0d9" stroke="#91b0d9" stroke-width="1.51"/><path d="M983,1458L1124,1556L1158,1505Z" fill="#547caf" stroke="#547caf" stroke-width="1.51"/><path d="M686,516L410,489L628,662Z" fill="#b9d6ea" stroke="#b9d6ea" stroke-width="1.51"/><path d="M765,148L841,400L1007,106Z" fill="#c3dced" stroke="#c3dced" stroke-width="1.51"/><path d="M1960,191L2065,100L1846,59Z" fill="#91add6" stroke="#91add6" stroke-width="1.51"/><path d="M2155,538L2144,359L1878,559Z" fill="#7399ca" stroke="#7399ca" stroke-width="1.51"/><path d="M2106,875L2324,703L2072,689Z" fill="#4e84bd" stroke="#4e84bd" stroke-width="1.51"/><path d="M2155,538L2223,374L2144,359Z" fill="#7795c7" stroke="#7795c7" stroke-width="1.51"/><path d="M2053,1132L2231,941L2106,875Z" fill="#3177b6" stroke="#3177b6" stroke-width="1.51"/><path d="M2196,1124L2231,941L2053,1132Z" fill="#2970b1" stroke="#2970b1" stroke-width="1.51"/><path d="M797,1499L1006,1553L983,1458Z" fill="#6082b1" stroke="#6082b1" stroke-width="1.51"/><path d="M671,861L593,1091L792,1129Z" fill="#86b2d9" stroke="#86b2d9" stroke-width="1.51"/><path d="M514,873L593,1091L671,861Z" fill="#91bbde" stroke="#91bbde" stroke-width="1.51"/><path d="M628,662L520,784L671,861Z" fill="#a0c7e4" stroke="#a0c7e4" stroke-width="1.51"/><path d="M410,489L520,784L628,662Z" fill="#b2d2e8" stroke="#b2d2e8" stroke-width="1.51"/><path d="M866,35L765,148L1007,106Z" fill="#cae0f0" stroke="#cae0f0" stroke-width="1.51"/><path d="M1728,1498L1983,1403L1846,1186Z" fill="#1f67ad" stroke="#1f67ad" stroke-width="1.51"/><path d="M1424,-30L1220,-129L1189,-26Z" fill="#b5d4eb" stroke="#b5d4eb" stroke-width="1.51"/><path d="M1688,-1L1535,-108L1496,42Z" fill="#a6c6e3" stroke="#a6c6e3" stroke-width="1.51"/><path d="M1422,-243L1535,-108L1739,-217Z" fill="#a6c7e4" stroke="#a6c7e4" stroke-width="1.51"/><path d="M983,1458L1006,1553L1124,1556Z" fill="#577dad" stroke="#577dad" stroke-width="1.51"/><path d="M1473,1737L1478,1653L1331,1569Z" fill="#35669c" stroke="#35669c" stroke-width="1.51"/><path d="M797,1499L976,1297L788,1205Z" fill="#6c93c5" stroke="#6c93c5" stroke-width="1.51"/><path d="M520,784L514,873L671,861Z" fill="#9ac3e2" stroke="#9ac3e2" stroke-width="1.51"/><path d="M2095,1306L2196,1124L2053,1132Z" fill="#1d68ae" stroke="#1d68ae" stroke-width="1.51"/><path d="M593,1091L622,1212L792,1129Z" fill="#80a8d4" stroke="#80a8d4" stroke-width="1.51"/><path d="M432,1187L622,1212L593,1091Z" fill="#85aad5" stroke="#85aad5" stroke-width="1.51"/><path d="M1064,16L866,35L1007,106Z" fill="#c6dfee" stroke="#c6dfee" stroke-width="1.51"/><path d="M720,-81L866,35L757,-180Z" fill="#d6e7f4" stroke="#d6e7f4" stroke-width="1.51"/><path d="M1220,-129L1064,16L1189,-26Z" fill="#bddaed" stroke="#bddaed" stroke-width="1.51"/><path d="M1983,1403L2095,1306L1846,1186Z" fill="#1b66ad" stroke="#1b66ad" stroke-width="1.51"/><path d="M1473,1737L1331,1569L1356,1828Z" fill="#38689d" stroke="#38689d" stroke-width="1.51"/><path d="M1331,1569L1478,1653L1395,1439Z" fill="#396ba2" stroke="#396ba2" stroke-width="1.51"/><path d="M1965,1560L2026,1457L1983,1403Z" fill="#14579c" stroke="#14579c" stroke-width="1.51"/><path d="M1422,-243L1220,-129L1424,-30Z" fill="#b1d0e9" stroke="#b1d0e9" stroke-width="1.51"/><path d="M2144,359L2065,100L1960,191Z" fill="#88a3d0" stroke="#88a3d0" stroke-width="1.51"/><path d="M2292,486L2223,374L2155,538Z" fill="#7191c3" stroke="#7191c3" stroke-width="1.51"/><path d="M2231,941L2324,703L2106,875Z" fill="#417cb8" stroke="#417cb8" stroke-width="1.51"/><path d="M2379,962L2324,703L2231,941Z" fill="#3c75b1" stroke="#3c75b1" stroke-width="1.51"/><path d="M765,148L648,178L665,320Z" fill="#cee1f2" stroke="#cee1f2" stroke-width="1.51"/><path d="M665,320L410,489L686,516Z" fill="#c4daee" stroke="#c4daee" stroke-width="1.51"/><path d="M720,-81L648,178L765,148Z" fill="#d5e5f4" stroke="#d5e5f4" stroke-width="1.51"/><path d="M2324,703L2292,486L2155,538Z" fill="#648bbe" stroke="#648bbe" stroke-width="1.51"/><path d="M2312,180L2065,100L2144,359Z" fill="#859dcb" stroke="#859dcb" stroke-width="1.51"/><path d="M1739,-217L1535,-108L1688,-1Z" fill="#a3c2e1" stroke="#a3c2e1" stroke-width="1.51"/><path d="M2077,-77L2065,100L2240,65Z" fill="#92a6d1" stroke="#92a6d1" stroke-width="1.51"/><path d="M1983,1403L2026,1457L2095,1306Z" fill="#135ca4" stroke="#135ca4" stroke-width="1.51"/><path d="M1478,1653L1710,1647L1728,1498Z" fill="#275d96" stroke="#275d96" stroke-width="1.51"/><path d="M1965,1560L1983,1403L1728,1498Z" fill="#195a9e" stroke="#195a9e" stroke-width="1.51"/><path d="M2390,1138L2379,962L2196,1124Z" fill="#2566a7" stroke="#2566a7" stroke-width="1.51"/><path d="M695,1433L797,1499L788,1205Z" fill="#7191c4" stroke="#7191c4" stroke-width="1.51"/><path d="M622,1212L695,1433L788,1205Z" fill="#789bcc" stroke="#789bcc" stroke-width="1.51"/><path d="M1478,1653L1473,1737L1710,1647Z" fill="#2d6198" stroke="#2d6198" stroke-width="1.51"/><path d="M1229,1765L1331,1569L1124,1556Z" fill="#446ea0" stroke="#446ea0" stroke-width="1.51"/><path d="M1229,1765L1124,1556L993,1738Z" fill="#4d72a2" stroke="#4d72a2" stroke-width="1.51"/><path d="M1710,1647L1965,1560L1728,1498Z" fill="#1e5896" stroke="#1e5896" stroke-width="1.51"/><path d="M1767,1706L1965,1560L1710,1647Z" fill="#1d5592" stroke="#1d5592" stroke-width="1.51"/><path d="M1535,-108L1422,-243L1424,-30Z" fill="#abcbe6" stroke="#abcbe6" stroke-width="1.51"/><path d="M979,-239L866,35L1064,16Z" fill="#cbe2f0" stroke="#cbe2f0" stroke-width="1.51"/><path d="M1862,-151L1688,-1L1846,59Z" fill="#9ebadd" stroke="#9ebadd" stroke-width="1.51"/><path d="M2196,1124L2379,962L2231,941Z" fill="#2b6eae" stroke="#2b6eae" stroke-width="1.51"/><path d="M2425,201L2223,374L2507,344Z" fill="#798dbb" stroke="#798dbb" stroke-width="1.51"/><path d="M2332,1190L2196,1124L2095,1306Z" fill="#1862a9" stroke="#1862a9" stroke-width="1.51"/><path d="M2332,1190L2095,1306L2300,1366Z" fill="#115aa3" stroke="#115aa3" stroke-width="1.51"/><path d="M797,1499L785,1566L1006,1553Z" fill="#6380af" stroke="#6380af" stroke-width="1.51"/><path d="M695,1433L785,1566L797,1499Z" fill="#6b86b6" stroke="#6b86b6" stroke-width="1.51"/><path d="M459,302L410,489L665,320Z" fill="#cddff1" stroke="#cddff1" stroke-width="1.51"/><path d="M347,938L395,1116L514,873Z" fill="#96bddf" stroke="#96bddf" stroke-width="1.51"/><path d="M993,1738L1124,1556L1006,1553Z" fill="#5475a3" stroke="#5475a3" stroke-width="1.51"/><path d="M1356,1828L1767,1706L1473,1737Z" fill="#2e6299" stroke="#2e6299" stroke-width="1.51"/><path d="M1473,1737L1767,1706L1710,1647Z" fill="#265d96" stroke="#265d96" stroke-width="1.51"/><path d="M2077,-77L1862,-151L1846,59Z" fill="#99b3da" stroke="#99b3da" stroke-width="1.51"/><path d="M648,178L540,182L665,320Z" fill="#d2e2f3" stroke="#d2e2f3" stroke-width="1.51"/><path d="M720,-81L540,182L648,178Z" fill="#d9e7f5" stroke="#d9e7f5" stroke-width="1.51"/><path d="M720,-81L765,148L866,35Z" fill="#d4e5f3" stroke="#d4e5f3" stroke-width="1.51"/><path d="M1862,-151L1739,-217L1688,-1Z" fill="#9fbcde" stroke="#9fbcde" stroke-width="1.51"/><path d="M2372,1174L2332,1190L2300,1366Z" fill="#14589e" stroke="#14589e" stroke-width="1.51"/><path d="M540,182L459,302L665,320Z" fill="#d1e2f3" stroke="#d1e2f3" stroke-width="1.51"/><path d="M695,1433L628,1555L785,1566Z" fill="#6e86b5" stroke="#6e86b5" stroke-width="1.51"/><path d="M622,1212L514,1366L695,1433Z" fill="#7b99ca" stroke="#7b99ca" stroke-width="1.51"/><path d="M395,1116L432,1187L593,1091Z" fill="#8aaed7" stroke="#8aaed7" stroke-width="1.51"/><path d="M395,1116L593,1091L514,873Z" fill="#8eb7db" stroke="#8eb7db" stroke-width="1.51"/><path d="M347,938L514,873L520,784Z" fill="#9dc4e2" stroke="#9dc4e2" stroke-width="1.51"/><path d="M785,1566L993,1738L1006,1553Z" fill="#5c79a5" stroke="#5c79a5" stroke-width="1.51"/><path d="M232,779L347,938L520,784Z" fill="#a3c9e5" stroke="#a3c9e5" stroke-width="1.51"/><path d="M2332,1190L2390,1138L2196,1124Z" fill="#1d61a5" stroke="#1d61a5" stroke-width="1.51"/><path d="M2300,1366L2095,1306L2026,1457Z" fill="#0f58a1" stroke="#0f58a1" stroke-width="1.51"/><path d="M323,1368L514,1366L432,1187Z" fill="#84a0ce" stroke="#84a0ce" stroke-width="1.51"/><path d="M432,1187L514,1366L622,1212Z" fill="#82a2d0" stroke="#82a2d0" stroke-width="1.51"/><path d="M785,1566L862,1815L993,1738Z" fill="#5f7aa6" stroke="#5f7aa6" stroke-width="1.51"/><path d="M2372,1174L2390,1138L2332,1190Z" fill="#1b5ca0" stroke="#1b5ca0" stroke-width="1.51"/><path d="M1229,1765L1356,1828L1331,1569Z" fill="#3d6b9f" stroke="#3d6b9f" stroke-width="1.51"/><path d="M862,1815L1356,1828L1229,1765Z" fill="#4b71a2" stroke="#4b71a2" stroke-width="1.51"/><path d="M979,-239L1064,16L1220,-129Z" fill="#c2ddee" stroke="#c2ddee" stroke-width="1.51"/><path d="M1422,-243L979,-239L1220,-129Z" fill="#bad7ec" stroke="#bad7ec" stroke-width="1.51"/><path d="M1862,-151L2124,-259L1739,-217Z" fill="#9ab4db" stroke="#9ab4db" stroke-width="1.51"/><path d="M2065,100L2077,-77L1846,59Z" fill="#96aed7" stroke="#96aed7" stroke-width="1.51"/><path d="M2312,180L2144,359L2223,374Z" fill="#7f97c8" stroke="#7f97c8" stroke-width="1.51"/><path d="M2425,201L2312,180L2223,374Z" fill="#7f94c2" stroke="#7f94c2" stroke-width="1.51"/><path d="M2479,634L2292,486L2324,703Z" fill="#5e83b4" stroke="#5e83b4" stroke-width="1.51"/><path d="M2658,1212L2617,1054L2390,1138Z" fill="#1d5593" stroke="#1d5593" stroke-width="1.51"/><path d="M2332,1668L2300,1366L2026,1457Z" fill="#0a4a91" stroke="#0a4a91" stroke-width="1.51"/><path d="M2034,1664L2026,1457L1965,1560Z" fill="#134e90" stroke="#134e90" stroke-width="1.51"/><path d="M395,1116L361,1134L432,1187Z" fill="#8cafd8" stroke="#8cafd8" stroke-width="1.51"/><path d="M347,938L361,1134L395,1116Z" fill="#92b7dc" stroke="#92b7dc" stroke-width="1.51"/><path d="M2557,880L2479,634L2324,703Z" fill="#4a76a9" stroke="#4a76a9" stroke-width="1.51"/><path d="M2557,880L2324,703L2379,962Z" fill="#3d70a8" stroke="#3d70a8" stroke-width="1.51"/><path d="M2312,180L2240,65L2065,100Z" fill="#8b9fcc" stroke="#8b9fcc" stroke-width="1.51"/><path d="M541,1672L628,1555L514,1366Z" fill="#7588b5" stroke="#7588b5" stroke-width="1.51"/><path d="M514,1366L628,1555L695,1433Z" fill="#768ebf" stroke="#768ebf" stroke-width="1.51"/><path d="M1767,1706L2034,1664L1965,1560Z" fill="#164f8f" stroke="#164f8f" stroke-width="1.51"/><path d="M1980,1812L2034,1664L1767,1706Z" fill="#164f8f" stroke="#164f8f" stroke-width="1.51"/><path d="M979,-239L757,-180L866,35Z" fill="#d1e5f2" stroke="#d1e5f2" stroke-width="1.51"/><path d="M720,-81L409,-8L540,182Z" fill="#e0ecf8" stroke="#e0ecf8" stroke-width="1.51"/><path d="M277,140L294,403L459,302Z" fill="#d8e7f5" stroke="#d8e7f5" stroke-width="1.51"/><path d="M410,489L232,779L520,784Z" fill="#b3d3e8" stroke="#b3d3e8" stroke-width="1.51"/><path d="M141,1242L293,1252L361,1134Z" fill="#8eacd6" stroke="#8eacd6" stroke-width="1.51"/><path d="M459,302L294,403L410,489Z" fill="#d0e1f2" stroke="#d0e1f2" stroke-width="1.51"/><path d="M277,140L459,302L540,182Z" fill="#dae8f5" stroke="#dae8f5" stroke-width="1.51"/><path d="M2479,634L2510,472L2292,486Z" fill="#6582b2" stroke="#6582b2" stroke-width="1.51"/><path d="M2312,180L2441,-47L2240,65Z" fill="#8b99c5" stroke="#8b99c5" stroke-width="1.51"/><path d="M2600,569L2510,472L2479,634Z" fill="#5f7ca8" stroke="#5f7ca8" stroke-width="1.51"/><path d="M220,481L232,779L410,489Z" fill="#c1dced" stroke="#c1dced" stroke-width="1.51"/><path d="M2617,1054L2557,880L2379,962Z" fill="#2d639c" stroke="#2d639c" stroke-width="1.51"/><path d="M2617,1054L2379,962L2390,1138Z" fill="#26609d" stroke="#26609d" stroke-width="1.51"/><path d="M2507,344L2223,374L2292,486Z" fill="#758cbd" stroke="#758cbd" stroke-width="1.51"/><path d="M2186,-226L2124,-259L2077,-77Z" fill="#94a7d2" stroke="#94a7d2" stroke-width="1.51"/><path d="M600,1735L862,1815L785,1566Z" fill="#687da9" stroke="#687da9" stroke-width="1.51"/><path d="M993,1738L862,1815L1229,1765Z" fill="#5576a4" stroke="#5576a4" stroke-width="1.51"/><path d="M2693,364L2507,344L2510,472Z" fill="#6f80ab" stroke="#6f80ab" stroke-width="1.51"/><path d="M2510,472L2507,344L2292,486Z" fill="#6f85b5" stroke="#6f85b5" stroke-width="1.51"/><path d="M294,403L220,481L410,489Z" fill="#cde1f1" stroke="#cde1f1" stroke-width="1.51"/><path d="M184,494L220,481L147,305Z" fill="#d5e5f4" stroke="#d5e5f4" stroke-width="1.51"/><path d="M361,1134L293,1252L432,1187Z" fill="#8babd6" stroke="#8babd6" stroke-width="1.51"/><path d="M628,1555L600,1735L785,1566Z" fill="#6c7fab" stroke="#6c7fab" stroke-width="1.51"/><path d="M68,944L361,1134L347,938Z" fill="#9abee0" stroke="#9abee0" stroke-width="1.51"/><path d="M2034,1664L2332,1668L2026,1457Z" fill="#0e4687" stroke="#0e4687" stroke-width="1.51"/><path d="M1356,1828L1980,1812L1767,1706Z" fill="#235a95" stroke="#235a95" stroke-width="1.51"/><path d="M2557,880L2602,713L2479,634Z" fill="#4870a2" stroke="#4870a2" stroke-width="1.51"/><path d="M2602,713L2600,569L2479,634Z" fill="#5576a4" stroke="#5576a4" stroke-width="1.51"/><path d="M293,1252L323,1368L432,1187Z" fill="#89a5d1" stroke="#89a5d1" stroke-width="1.51"/><path d="M220,481L184,494L232,779Z" fill="#c4ddee" stroke="#c4ddee" stroke-width="1.51"/><path d="M232,779L68,944L347,938Z" fill="#a5c8e5" stroke="#a5c8e5" stroke-width="1.51"/><path d="M147,305L220,481L294,403Z" fill="#d6e5f4" stroke="#d6e5f4" stroke-width="1.51"/><path d="M511,-178L409,-8L720,-81Z" fill="#e2edf8" stroke="#e2edf8" stroke-width="1.51"/><path d="M332,1655L541,1672L514,1366Z" fill="#7787b2" stroke="#7787b2" stroke-width="1.51"/><path d="M2077,-77L2124,-259L1862,-151Z" fill="#97aed6" stroke="#97aed6" stroke-width="1.51"/><path d="M1739,-217L2124,-259L1422,-243Z" fill="#9fbcde" stroke="#9fbcde" stroke-width="1.51"/><path d="M1422,-243L637,-253L979,-239Z" fill="#c7e0ef" stroke="#c7e0ef" stroke-width="1.51"/><path d="M2186,-226L2077,-77L2240,65Z" fill="#93a5d0" stroke="#93a5d0" stroke-width="1.51"/><path d="M541,1672L600,1735L628,1555Z" fill="#7081ac" stroke="#7081ac" stroke-width="1.51"/><path d="M757,-180L637,-253L720,-81Z" fill="#dbe9f6" stroke="#dbe9f6" stroke-width="1.51"/><path d="M979,-239L637,-253L757,-180Z" fill="#d5e7f3" stroke="#d5e7f3" stroke-width="1.51"/><path d="M2124,-259L637,-253L1422,-243Z" fill="#afcfe8" stroke="#afcfe8" stroke-width="1.51"/><path d="M2557,880L2724,966L2602,713Z" fill="#3a689d" stroke="#3a689d" stroke-width="1.51"/><path d="M2823,561L2693,364L2600,569Z" fill="#657ca8" stroke="#657ca8" stroke-width="1.51"/><path d="M2658,1212L2390,1138L2372,1174Z" fill="#195697" stroke="#195697" stroke-width="1.51"/><path d="M2561,1372L2372,1174L2300,1366Z" fill="#104f94" stroke="#104f94" stroke-width="1.51"/><path d="M2441,-47L2312,180L2425,201Z" fill="#8594bf" stroke="#8594bf" stroke-width="1.51"/><path d="M2417,-159L2186,-226L2240,65Z" fill="#909fca" stroke="#909fca" stroke-width="1.51"/><path d="M1980,1812L2153,1770L2034,1664Z" fill="#11498a" stroke="#11498a" stroke-width="1.51"/><path d="M409,-8L277,140L540,182Z" fill="#e1edf8" stroke="#e1edf8" stroke-width="1.51"/><path d="M637,-253L511,-178L720,-81Z" fill="#dfebf7" stroke="#dfebf7" stroke-width="1.51"/><path d="M409,-8L217,40L277,140Z" fill="#e8f1fa" stroke="#e8f1fa" stroke-width="1.51"/><path d="M2153,1770L2332,1668L2034,1664Z" fill="#0c4486" stroke="#0c4486" stroke-width="1.51"/><path d="M2516,1462L2561,1372L2300,1366Z" fill="#09458b" stroke="#09458b" stroke-width="1.51"/><path d="M127,99L147,305L277,140Z" fill="#e5eff9" stroke="#e5eff9" stroke-width="1.51"/><path d="M277,140L147,305L294,403Z" fill="#dce9f7" stroke="#dce9f7" stroke-width="1.51"/><path d="M51,726L68,944L232,779Z" fill="#afd0e9" stroke="#afd0e9" stroke-width="1.51"/><path d="M2667,99L2441,-47L2425,201Z" fill="#838eb5" stroke="#838eb5" stroke-width="1.51"/><path d="M2667,99L2425,201L2507,344Z" fill="#7a88b1" stroke="#7a88b1" stroke-width="1.51"/><path d="M2332,1668L2516,1462L2300,1366Z" fill="#094184" stroke="#094184" stroke-width="1.51"/><path d="M51,726L232,779L184,494Z" fill="#bedaec" stroke="#bedaec" stroke-width="1.51"/><path d="M293,1252L141,1242L323,1368Z" fill="#8ca5d1" stroke="#8ca5d1" stroke-width="1.51"/><path d="M14,732L51,726L-75,510Z" fill="#c5deee" stroke="#c5deee" stroke-width="1.51"/><path d="M323,1368L332,1655L514,1366Z" fill="#7f92c0" stroke="#7f92c0" stroke-width="1.51"/><path d="M44,1135L141,1242L361,1134Z" fill="#94b2d9" stroke="#94b2d9" stroke-width="1.51"/><path d="M2734,1186L2658,1212L2760,1428Z" fill="#124a8b" stroke="#124a8b" stroke-width="1.51"/><path d="M2561,1372L2658,1212L2372,1174Z" fill="#134d8e" stroke="#134d8e" stroke-width="1.51"/><path d="M2617,1054L2724,966L2557,880Z" fill="#2d6199" stroke="#2d6199" stroke-width="1.51"/><path d="M2815,1081L2724,966L2617,1054Z" fill="#265c96" stroke="#265c96" stroke-width="1.51"/><path d="M2600,569L2693,364L2510,472Z" fill="#687da9" stroke="#687da9" stroke-width="1.51"/><path d="M2776,646L2600,569L2602,713Z" fill="#5576a4" stroke="#5576a4" stroke-width="1.51"/><path d="M338,-201L217,40L409,-8Z" fill="#ebf3fb" stroke="#ebf3fb" stroke-width="1.51"/><path d="M51,726L14,732L68,944Z" fill="#b3d3ea" stroke="#b3d3ea" stroke-width="1.51"/><path d="M68,944L44,1135L361,1134Z" fill="#9abbde" stroke="#9abbde" stroke-width="1.51"/><path d="M-75,510L51,726L184,494Z" fill="#cce2f0" stroke="#cce2f0" stroke-width="1.51"/><path d="M-75,510L184,494L147,305Z" fill="#d8e7f5" stroke="#d8e7f5" stroke-width="1.51"/><path d="M2441,-47L2417,-159L2240,65Z" fill="#8d9ac3" stroke="#8d9ac3" stroke-width="1.51"/><path d="M2186,-226L2581,-182L2124,-259Z" fill="#909ec9" stroke="#909ec9" stroke-width="1.51"/><path d="M2581,-182L2417,-159L2441,-47Z" fill="#8a93ba" stroke="#8a93ba" stroke-width="1.51"/><path d="M160,1441L332,1655L323,1368Z" fill="#8292be" stroke="#8292be" stroke-width="1.51"/><path d="M541,1672L444,1840L600,1735Z" fill="#7283ad" stroke="#7283ad" stroke-width="1.51"/><path d="M600,1735L444,1840L862,1815Z" fill="#6e80ab" stroke="#6e80ab" stroke-width="1.51"/><path d="M2724,966L2776,646L2602,713Z" fill="#436da0" stroke="#436da0" stroke-width="1.51"/><path d="M-56,1047L44,1135L68,944Z" fill="#a2c1e1" stroke="#a2c1e1" stroke-width="1.51"/><path d="M141,1242L160,1441L323,1368Z" fill="#8ba1ce" stroke="#8ba1ce" stroke-width="1.51"/><path d="M2391,1803L2478,1637L2332,1668Z" fill="#093877" stroke="#093877" stroke-width="1.51"/><path d="M2332,1668L2478,1637L2516,1462Z" fill="#093775" stroke="#093775" stroke-width="1.51"/><path d="M2516,1462L2760,1428L2561,1372Z" fill="#093e81" stroke="#093e81" stroke-width="1.51"/><path d="M-1,1371L160,1441L141,1242Z" fill="#8fa3cf" stroke="#8fa3cf" stroke-width="1.51"/><path d="M2909,485L2823,561L2998,713Z" fill="#5c79a5" stroke="#5c79a5" stroke-width="1.51"/><path d="M2658,1212L2734,1186L2617,1054Z" fill="#1b5391" stroke="#1b5391" stroke-width="1.51"/><path d="M2760,1428L2658,1212L2561,1372Z" fill="#0d4587" stroke="#0d4587" stroke-width="1.51"/><path d="M2478,1637L2551,1569L2516,1462Z" fill="#083573" stroke="#083573" stroke-width="1.51"/><path d="M637,-253L338,-201L511,-178Z" fill="#e4eef9" stroke="#e4eef9" stroke-width="1.51"/><path d="M511,-178L338,-201L409,-8Z" fill="#e7f0fa" stroke="#e7f0fa" stroke-width="1.51"/><path d="M42,51L127,99L217,40Z" fill="#eef5fc" stroke="#eef5fc" stroke-width="1.51"/><path d="M217,40L127,99L277,140Z" fill="#e9f2fb" stroke="#e9f2fb" stroke-width="1.51"/><path d="M2831,151L2667,99L2693,364Z" fill="#7a87af" stroke="#7a87af" stroke-width="1.51"/><path d="M2693,364L2667,99L2507,344Z" fill="#7684ae" stroke="#7684ae" stroke-width="1.51"/><path d="M296,1805L444,1840L332,1655Z" fill="#7986af" stroke="#7986af" stroke-width="1.51"/><path d="M332,1655L444,1840L541,1672Z" fill="#7684ae" stroke="#7684ae" stroke-width="1.51"/><path d="M862,1815L444,1840L1356,1828Z" fill="#5f7aa6" stroke="#5f7aa6" stroke-width="1.51"/><path d="M44,1135L-1,1371L141,1242Z" fill="#95add6" stroke="#95add6" stroke-width="1.51"/><path d="M14,732L-43,938L68,944Z" fill="#aecee8" stroke="#aecee8" stroke-width="1.51"/><path d="M-214,945L-43,938L14,732Z" fill="#afcfe8" stroke="#afcfe8" stroke-width="1.51"/><path d="M2153,1770L2334,1852L2332,1668Z" fill="#093e81" stroke="#093e81" stroke-width="1.51"/><path d="M2478,1637L2653,1720L2551,1569Z" fill="#08306b" stroke="#08306b" stroke-width="1.51"/><path d="M1980,1812L2334,1852L2153,1770Z" fill="#0d4486" stroke="#0d4486" stroke-width="1.51"/><path d="M1356,1828L2334,1852L1980,1812Z" fill="#185190" stroke="#185190" stroke-width="1.51"/><path d="M444,1840L2334,1852L1356,1828Z" fill="#38689d" stroke="#38689d" stroke-width="1.51"/><path d="M2776,646L2823,561L2600,569Z" fill="#5b79a5" stroke="#5b79a5" stroke-width="1.51"/><path d="M2998,713L2776,646L2724,966Z" fill="#436da0" stroke="#436da0" stroke-width="1.51"/><path d="M2334,1852L2391,1803L2332,1668Z" fill="#093a7a" stroke="#093a7a" stroke-width="1.51"/><path d="M2734,1186L2815,1081L2617,1054Z" fill="#1f5793" stroke="#1f5793" stroke-width="1.51"/><path d="M2904,1105L2815,1081L2734,1186Z" fill="#1e5592" stroke="#1e5592" stroke-width="1.51"/><path d="M-43,938L-56,1047L68,944Z" fill="#a6c7e4" stroke="#a6c7e4" stroke-width="1.51"/><path d="M-97,378L-75,510L147,305Z" fill="#dfebf7" stroke="#dfebf7" stroke-width="1.51"/><path d="M-214,945L-170,1080L-56,1047Z" fill="#a3c3e2" stroke="#a3c3e2" stroke-width="1.51"/><path d="M2667,99L2674,3L2441,-47Z" fill="#868eb3" stroke="#868eb3" stroke-width="1.51"/><path d="M2772,-34L2674,3L2667,99Z" fill="#858db3" stroke="#858db3" stroke-width="1.51"/><path d="M2909,485L2838,318L2693,364Z" fill="#6f80ab" stroke="#6f80ab" stroke-width="1.51"/><path d="M2909,485L2693,364L2823,561Z" fill="#677da9" stroke="#677da9" stroke-width="1.51"/><path d="M178,1674L296,1805L332,1655Z" fill="#7c88b0" stroke="#7c88b0" stroke-width="1.51"/><path d="M178,1674L332,1655L160,1441Z" fill="#7f8ab1" stroke="#7f8ab1" stroke-width="1.51"/><path d="M2674,3L2581,-182L2441,-47Z" fill="#878eb3" stroke="#878eb3" stroke-width="1.51"/><path d="M2417,-159L2581,-182L2186,-226Z" fill="#8c98c1" stroke="#8c98c1" stroke-width="1.51"/><path d="M2772,-34L2581,-182L2674,3Z" fill="#878eb3" stroke="#878eb3" stroke-width="1.51"/><path d="M-22,1647L178,1674L160,1441Z" fill="#848db3" stroke="#848db3" stroke-width="1.51"/><path d="M-83,1192L-1,1371L44,1135Z" fill="#98b0d8" stroke="#98b0d8" stroke-width="1.51"/><path d="M127,99L-65,153L147,305Z" fill="#e9f1fb" stroke="#e9f1fb" stroke-width="1.51"/><path d="M175,-241L42,51L217,40Z" fill="#f2f7fd" stroke="#f2f7fd" stroke-width="1.51"/><path d="M2551,1569L2760,1428L2516,1462Z" fill="#093978" stroke="#093978" stroke-width="1.51"/><path d="M2653,1720L2760,1428L2551,1569Z" fill="#08326e" stroke="#08326e" stroke-width="1.51"/><path d="M-170,1080L-83,1192L-56,1047Z" fill="#9fbbde" stroke="#9fbbde" stroke-width="1.51"/><path d="M-65,153L-97,378L147,305Z" fill="#e6f0fa" stroke="#e6f0fa" stroke-width="1.51"/><path d="M-56,1047L-83,1192L44,1135Z" fill="#9ebadd" stroke="#9ebadd" stroke-width="1.51"/><path d="M-196,640L14,732L-75,510Z" fill="#c8e0ef" stroke="#c8e0ef" stroke-width="1.51"/><path d="M2998,713L2823,561L2776,646Z" fill="#5576a4" stroke="#5576a4" stroke-width="1.51"/><path d="M2815,1081L3015,939L2724,966Z" fill="#295f97" stroke="#295f97" stroke-width="1.51"/><path d="M2965,1292L2904,1105L2734,1186Z" fill="#16508f" stroke="#16508f" stroke-width="1.51"/><path d="M2921,248L2831,151L2838,318Z" fill="#7886ae" stroke="#7886ae" stroke-width="1.51"/><path d="M2838,318L2831,151L2693,364Z" fill="#7684ae" stroke="#7684ae" stroke-width="1.51"/><path d="M-22,1647L167,1733L178,1674Z" fill="#838cb2" stroke="#838cb2" stroke-width="1.51"/><path d="M178,1674L167,1733L296,1805Z" fill="#7e89b1" stroke="#7e89b1" stroke-width="1.51"/><path d="M637,-253L175,-241L338,-201Z" fill="#e8f1fa" stroke="#e8f1fa" stroke-width="1.51"/><path d="M338,-201L175,-241L217,40Z" fill="#eef5fc" stroke="#eef5fc" stroke-width="1.51"/><path d="M-4,14L-65,153L42,51Z" fill="#f3f8fe" stroke="#f3f8fe" stroke-width="1.51"/><path d="M42,51L-65,153L127,99Z" fill="#eff6fd" stroke="#eff6fd" stroke-width="1.51"/><path d="M175,-241L-4,14L42,51Z" fill="#f4f9fe" stroke="#f4f9fe" stroke-width="1.51"/><path d="M2965,1292L3015,939L2904,1105Z" fill="#1f5693" stroke="#1f5693" stroke-width="1.51"/><path d="M2391,1803L2653,1720L2478,1637Z" fill="#08326f" stroke="#08326f" stroke-width="1.51"/><path d="M2334,1852L2653,1720L2391,1803Z" fill="#093572" stroke="#093572" stroke-width="1.51"/><path d="M-209,552L-196,640L-75,510Z" fill="#cfe4f1" stroke="#cfe4f1" stroke-width="1.51"/><path d="M-209,552L-75,510L-97,378Z" fill="#d7e7f4" stroke="#d7e7f4" stroke-width="1.51"/><path d="M2831,151L2772,-34L2667,99Z" fill="#828bb2" stroke="#828bb2" stroke-width="1.51"/><path d="M-181,1645L-22,1647L-1,1371Z" fill="#8992b9" stroke="#8992b9" stroke-width="1.51"/><path d="M-1,1371L-22,1647L160,1441Z" fill="#8b98c1" stroke="#8b98c1" stroke-width="1.51"/><path d="M-214,945L-56,1047L-43,938Z" fill="#a6c7e4" stroke="#a6c7e4" stroke-width="1.51"/><path d="M3001,323L2921,248L2838,318Z" fill="#7483ad" stroke="#7483ad" stroke-width="1.51"/><path d="M3015,939L2998,713L2724,966Z" fill="#37679c" stroke="#37679c" stroke-width="1.51"/><path d="M-196,640L-214,945L14,732Z" fill="#b8d6ec" stroke="#b8d6ec" stroke-width="1.51"/><path d="M-218,325L-209,552L-97,378Z" fill="#ddeaf7" stroke="#ddeaf7" stroke-width="1.51"/><path d="M3001,323L2838,318L2909,485Z" fill="#7081ac" stroke="#7081ac" stroke-width="1.51"/><path d="M3033,-55L2818,-169L2772,-34Z" fill="#878eb3" stroke="#878eb3" stroke-width="1.51"/><path d="M-209,552L-214,945L-196,640Z" fill="#bedaed" stroke="#bedaed" stroke-width="1.51"/><path d="M2904,1105L3015,939L2815,1081Z" fill="#255c95" stroke="#255c95" stroke-width="1.51"/><path d="M2965,1292L2734,1186L2760,1428Z" fill="#104789" stroke="#104789" stroke-width="1.51"/><path d="M-65,153L-184,230L-97,378Z" fill="#e8f1fa" stroke="#e8f1fa" stroke-width="1.51"/><path d="M-286,-60L-184,230L-65,153Z" fill="#f1f6fd" stroke="#f1f6fd" stroke-width="1.51"/><path d="M-286,-60L-65,153L-4,14Z" fill="#f5f9ff" stroke="#f5f9ff" stroke-width="1.51"/><path d="M3028,1490L2965,1292L2760,1428Z" fill="#094083" stroke="#094083" stroke-width="1.51"/><path d="M-209,552L-317,1249L-214,945Z" fill="#abcbe6" stroke="#abcbe6" stroke-width="1.51"/><path d="M-184,230L-218,325L-97,378Z" fill="#e4eef9" stroke="#e4eef9" stroke-width="1.51"/><path d="M2998,713L3001,323L2909,485Z" fill="#647ca7" stroke="#647ca7" stroke-width="1.51"/><path d="M3033,-55L2772,-34L2831,151Z" fill="#858db3" stroke="#858db3" stroke-width="1.51"/><path d="M3015,939L3001,323L2998,713Z" fill="#5375a3" stroke="#5375a3" stroke-width="1.51"/><path d="M-317,1249L-83,1192L-170,1080Z" fill="#9bb5db" stroke="#9bb5db" stroke-width="1.51"/><path d="M-267,1468L-1,1371L-83,1192Z" fill="#94a6d1" stroke="#94a6d1" stroke-width="1.51"/><path d="M167,1733L-84,1792L296,1805Z" fill="#828bb2" stroke="#828bb2" stroke-width="1.51"/><path d="M3033,-55L2831,151L2921,248Z" fill="#808ab1" stroke="#808ab1" stroke-width="1.51"/><path d="M2772,-34L2818,-169L2581,-182Z" fill="#878eb3" stroke="#878eb3" stroke-width="1.51"/><path d="M2581,-182L3049,-199L2124,-259Z" fill="#878eb3" stroke="#878eb3" stroke-width="1.51"/><path d="M2653,1720L2871,1657L2760,1428Z" fill="#08306b" stroke="#08306b" stroke-width="1.51"/><path d="M2880,1736L2871,1657L2653,1720Z" fill="#08306b" stroke="#08306b" stroke-width="1.51"/><path d="M-184,230L-286,-60L-218,325Z" fill="#edf4fc" stroke="#edf4fc" stroke-width="1.51"/><path d="M175,-241L-104,-157L-4,14Z" fill="#f6fafe" stroke="#f6fafe" stroke-width="1.51"/><path d="M-214,945L-317,1249L-170,1080Z" fill="#a0bddf" stroke="#a0bddf" stroke-width="1.51"/><path d="M-286,-60L-317,1249L-209,552Z" fill="#cde3f0" stroke="#cde3f0" stroke-width="1.51"/><path d="M2871,1657L3028,1490L2760,1428Z" fill="#093674" stroke="#093674" stroke-width="1.51"/><path d="M2334,1852L2880,1736L2653,1720Z" fill="#08306b" stroke="#08306b" stroke-width="1.51"/><path d="M3059,1560L3028,1490L2871,1657Z" fill="#08326e" stroke="#08326e" stroke-width="1.51"/><path d="M2965,1292L3028,1490L3015,939Z" fill="#134c8d" stroke="#134c8d" stroke-width="1.51"/><path d="M3015,939L3033,-55L3001,323Z" fill="#6e80ab" stroke="#6e80ab" stroke-width="1.51"/><path d="M-22,1647L-84,1792L167,1733Z" fill="#868eb3" stroke="#868eb3" stroke-width="1.51"/><path d="M296,1805L-249,1826L444,1840Z" fill="#808bb1" stroke="#808bb1" stroke-width="1.51"/><path d="M-181,1645L-84,1792L-22,1647Z" fill="#878eb3" stroke="#878eb3" stroke-width="1.51"/><path d="M-317,1249L-267,1468L-83,1192Z" fill="#96aad4" stroke="#96aad4" stroke-width="1.51"/><path d="M-267,1468L-181,1645L-1,1371Z" fill="#8c98c1" stroke="#8c98c1" stroke-width="1.51"/><path d="M3049,-199L3033,-55L3015,939Z" fill="#7986af" stroke="#7986af" stroke-width="1.51"/><path d="M3001,323L3033,-55L2921,248Z" fill="#7c88b0" stroke="#7c88b0" stroke-width="1.51"/><path d="M3028,1490L3059,1560L3015,939Z" fill="#0e4587" stroke="#0e4587" stroke-width="1.51"/><path d="M3014,1780L3059,1560L2871,1657Z" fill="#08306b" stroke="#08306b" stroke-width="1.51"/><path d="M-104,-157L-286,-60L-4,14Z" fill="#f7fbff" stroke="#f7fbff" stroke-width="1.51"/><path d="M-218,325L-286,-60L-209,552Z" fill="#e6f0fa" stroke="#e6f0fa" stroke-width="1.51"/><path d="M-104,-157L-253,-194L-286,-60Z" fill="#f7fbff" stroke="#f7fbff" stroke-width="1.51"/><path d="M175,-241L-253,-194L-104,-157Z" fill="#f7fbff" stroke="#f7fbff" stroke-width="1.51"/><path d="M3033,-55L3049,-199L2818,-169Z" fill="#878eb3" stroke="#878eb3" stroke-width="1.51"/><path d="M2818,-169L3049,-199L2581,-182Z" fill="#878eb3" stroke="#878eb3" stroke-width="1.51"/><path d="M3059,1560L3049,-199L3015,939Z" fill="#446ea0" stroke="#446ea0" stroke-width="1.51"/><path d="M2334,1852L3014,1780L2880,1736Z" fill="#08306b" stroke="#08306b" stroke-width="1.51"/><path d="M2880,1736L3014,1780L2871,1657Z" fill="#08306b" stroke="#08306b" stroke-width="1.51"/><path d="M-267,1468L-249,1826L-181,1645Z" fill="#878eb3" stroke="#878eb3" stroke-width="1.51"/><path d="M-181,1645L-249,1826L-84,1792Z" fill="#878eb3" stroke="#878eb3" stroke-width="1.51"/><path d="M-84,1792L-249,1826L296,1805Z" fill="#878eb3" stroke="#878eb3" stroke-width="1.51"/><path d="M-317,1249L-249,1826L-267,1468Z" fill="#8c96be" stroke="#8c96be" stroke-width="1.51"/></svg>