<?xml version="1.0" encoding="UTF-8" standalone="no"?>
<!DOCTYPE svg PUBLIC "-//W3C//DTD SVG 1.1//EN" "http://www.w3.org/Graphics/SVG/1.1/DTD/svg11.dtd">
<svg version="1.1" xmlns="http://www.w3.org/2000/svg" xmlns:xlink="http://www.w3.org/1999/xlink" preserveAspectRatio="xMidYMid meet" viewBox="0 0 640 640" width="640" height="640"><defs><path d="M331 341.46L351.91 573.07L310.1 573.07L268.28 573.07L289.19 341.46L310.1 109.84L331 341.46Z" id="bj5dS2dz"></path><path d="M230.98 286.15L314.49 321.49L305.39 337.98L296.28 354.48L221.88 302.64L147.47 250.81L230.98 286.15Z" id="a2oPWeK1WW"></path><path d="M395.25 238.92L316.39 306.77L307.75 295.19L299.11 283.61L386.61 227.34L474.11 171.07L395.25 238.92Z" id="er1t3fxVF"></path><path d="M473.78 171.41L321.22 303.04L314.29 294.03L473.78 171.41Z" id="b1t8pNCFJL"></path><path d="M290.58 330.49L288.58 348.49L147.47 250.81L290.58 330.49Z" id="d5xjFOTaFi"></path><path d="M351.91 573.07L294.08 573.07L310.1 109.84L351.91 573.07Z" id="k1lmgH5Q8s"></path></defs><g><g><g><use xlink:href="#bj5dS2dz" opacity="1" fill="#9f742b" fill-opacity="1"></use></g><g><use xlink:href="#a2oPWeK1WW" opacity="1" fill="#9f742b" fill-opacity="1"></use></g><g><use xlink:href="#er1t3fxVF" opacity="1" fill="#9f742b" fill-opacity="1"></use></g><g><use xlink:href="#b1t8pNCFJL" opacity="1" fill="#66420e" fill-opacity="1"></use></g><g><use xlink:href="#d5xjFOTaFi" opacity="1" fill="#66420e" fill-opacity="1"></use></g><g><use xlink:href="#k1lmgH5Q8s" opacity="1" fill="#66420e" fill-opacity="1"></use></g></g></g></svg>