<?xml version="1.0" encoding="UTF-8" standalone="no"?>
<!DOCTYPE svg PUBLIC "-//W3C//DTD SVG 1.1//EN" "http://www.w3.org/Graphics/SVG/1.1/DTD/svg11.dtd">
<svg version="1.1" xmlns="http://www.w3.org/2000/svg" xmlns:xlink="http://www.w3.org/1999/xlink" preserveAspectRatio="xMidYMid meet" viewBox="0 0 640 640" width="640" height="640"><defs><path d="M226.59 386.28L310.1 421.62L300.99 438.11L291.89 454.61L217.48 402.77L143.08 350.94L226.59 386.28Z" id="khxeKGabL"></path><path d="M331 341.46L351.91 573.07L310.1 573.07L268.28 573.07L289.19 341.46L310.1 109.84L331 341.46Z" id="aarerqF3G"></path><path d="M399.65 306.04L320.79 373.89L312.15 362.31L303.51 350.73L391.01 294.46L478.51 238.19L399.65 306.04Z" id="bGtmM8FDO"></path><path d="M310.1 114.51L354.05 573.07L310.1 573.07L310.1 114.51Z" id="bGSZxty1C"></path><path d="M478.51 238.19L326.9 373.1L317.37 360.56L478.51 238.19Z" id="aW5Cvwu92"></path><path d="M143.08 350.94L290.11 437.65L280.9 450.42L143.08 350.94Z" id="a1iJzhEdR"></path></defs><g><g><g><use xlink:href="#khxeKGabL" opacity="1" fill="#9f742b" fill-opacity="1"></use></g><g><use xlink:href="#aarerqF3G" opacity="1" fill="#9f742b" fill-opacity="1"></use></g><g><use xlink:href="#bGtmM8FDO" opacity="1" fill="#9f742b" fill-opacity="1"></use></g><g><use xlink:href="#bGSZxty1C" opacity="1" fill="#66420e" fill-opacity="1"></use></g><g><use xlink:href="#aW5Cvwu92" opacity="1" fill="#66420e" fill-opacity="1"></use></g><g><use xlink:href="#a1iJzhEdR" opacity="1" fill="#66420e" fill-opacity="1"></use></g></g></g></svg>